<?xml version="1.0" encoding="UTF-8" standalone="no"?>
<svg width="160px" height="120px" viewBox="0 0 160 120" version="1.1" xmlns="http://www.w3.org/2000/svg" xmlns:xlink="http://www.w3.org/1999/xlink">
    <!-- Generator: Sketch 3.8.3 (29802) - http://www.bohemiancoding.com/sketch -->
    <title>Artboard 3</title>
    <desc>Created with Sketch.</desc>
    <defs></defs>
    <g id="Page-1" stroke="none" stroke-width="1" fill="none" fill-rule="evenodd">
        <g id="Artboard-3">
            <g id="Group-33" transform="translate(52.000000, 26.000000)">
                <rect id="Rectangle-129" fill="#CCFF00" x="5" y="5" width="51" height="63"></rect>
                <g id="Invoicing" transform="translate(4.000000, 6.000000)" fill="#505050">
                    <g id="outline_27_">
                        <path d="M25.0909091,21.6363636 L6.09090909,21.6363636 C5.13572727,21.6363636 4.36363636,22.4084545 4.36363636,23.3636364 C4.36363636,24.3188182 5.13572727,25.0909091 6.09090909,25.0909091 L25.0909091,25.0909091 C26.0460909,25.0909091 26.8181818,24.3188182 26.8181818,23.3636364 C26.8181818,22.4084545 26.0460909,21.6363636 25.0909091,21.6363636 L25.0909091,21.6363636 Z M25.0909091,28.5454545 L6.09090909,28.5454545 C5.13572727,28.5454545 4.36363636,29.3175455 4.36363636,30.2727273 C4.36363636,31.2279091 5.13572727,32 6.09090909,32 L25.0909091,32 C26.0460909,32 26.8181818,31.2279091 26.8181818,30.2727273 C26.8181818,29.3175455 26.0460909,28.5454545 25.0909091,28.5454545 L25.0909091,28.5454545 Z M42.3636364,13 L42.3636364,2.63636364 C42.3636364,1.68118182 41.5915455,0.909090909 40.6363636,0.909090909 L2.63636364,0.909090909 C1.68118182,0.909090909 0.909090909,1.68118182 0.909090909,2.63636364 L0.909090909,13 C0.909090909,13.9551818 1.68118182,14.7272727 2.63636364,14.7272727 L40.6363636,14.7272727 C41.5915455,14.7272727 42.3636364,13.9551818 42.3636364,13 L42.3636364,13 Z M19.9090909,9.54545455 C19.9090909,10.5006364 19.137,11.2727273 18.1818182,11.2727273 L4.36363636,11.2727273 L4.36363636,4.36363636 L18.1818182,4.36363636 C19.137,4.36363636 19.9090909,5.13572727 19.9090909,6.09090909 L19.9090909,9.54545455 L19.9090909,9.54545455 Z M38.9090909,11.2727273 L25.0909091,11.2727273 C24.1357273,11.2727273 23.3636364,10.5006364 23.3636364,9.54545455 L23.3636364,6.09090909 C23.3636364,5.13572727 24.1357273,4.36363636 25.0909091,4.36363636 L38.9090909,4.36363636 L38.9090909,11.2727273 L38.9090909,11.2727273 Z M18.1818182,37.1818182 C18.1818182,36.2266364 17.4097273,35.4545455 16.4545455,35.4545455 L6.09090909,35.4545455 C5.13572727,35.4545455 4.36363636,36.2266364 4.36363636,37.1818182 C4.36363636,38.137 5.13572727,38.9090909 6.09090909,38.9090909 L16.4545455,38.9090909 C17.4097273,38.9090909 18.1818182,38.137 18.1818182,37.1818182 L18.1818182,37.1818182 Z" id="Shape"></path>
                    </g>
                </g>
                <rect id="Rectangle-129" stroke="#505050" stroke-width="4" stroke-linecap="round" stroke-linejoin="round" x="0" y="0" width="51" height="63"></rect>
            </g>
        </g>
    </g>
</svg>