<?xml version="1.0" encoding="UTF-8" standalone="no"?>
<svg width="160px" height="120px" viewBox="0 0 160 120" version="1.1" xmlns="http://www.w3.org/2000/svg" xmlns:xlink="http://www.w3.org/1999/xlink">
    <!-- Generator: Sketch 39.1 (31720) - http://www.bohemiancoding.com/sketch -->
    <title>Artboard 3</title>
    <desc>Created with Sketch.</desc>
    <defs></defs>
    <g id="Page-1" stroke="none" stroke-width="1" fill="none" fill-rule="evenodd">
        <g id="Artboard-3">
            <g id="Group-42-Copy" transform="translate(36.000000, 26.000000)">
                <path d="M4.90412779,56.103845 C4.11339194,54.6540673 4.63667435,52.8078989 6.07448142,51.9794079 L14.1209958,47.3428577 C15.5581001,46.5147717 17.2652935,47.0749611 17.9334548,48.5925675 L22.0700514,57.9880904 C22.73851,59.5063721 21.9484333,60.9250963 20.3022489,61.1573393 L11.541807,62.3932588 C9.89701798,62.625305 7.91883902,61.6311788 7.13189913,60.1883608 L4.90412779,56.103845 Z" id="Path-4" fill="#F9524E"></path>
                <path d="M56.0248983,55.666566 C55.8971394,54.9738319 55.2432159,54.5154049 54.5539905,54.6461414 C53.8698082,54.776878 53.4176092,55.4407482 53.545368,56.1317845 L54.4531283,61.0505363 C54.6514907,62.0064415 54.5388612,62.7721844 54.1068345,63.3902119 C53.4529109,64.3291383 52.0257101,64.9811233 50.0202324,65.2663668 L39.1607303,66.4514855 C37.4477531,66.3818725 35.605336,65.6959299 34.7580931,61.430861 L34.2184801,58.4697622 C34.0924023,57.7787259 33.4452028,57.3169032 32.7492533,57.4510355 C32.06339,57.5783763 31.612872,58.2422465 31.7389498,58.9332828 L32.285287,61.9130582 C33.1930472,66.5092133 35.5111979,68.8930337 39.1691355,69 L39.2077993,69 C39.2531873,69 39.2968943,68.9983021 39.3422823,68.9932085 L50.3312243,67.7945068 C53.1251086,67.3955055 55.0885604,66.4073407 56.1711486,64.8554804 C56.9999,63.6652681 57.2587798,62.1694378 56.9276154,60.5581518 L56.0248983,55.666566 L56.0248983,55.666566 Z M88.2604731,46.3554044 L72.0350993,2.00513947 C71.4753138,0.4685601 69.7119055,-0.397357556 68.119963,0.179920881 C67.3517289,0.466862222 66.7415123,1.03734915 66.4002616,1.78950899 C66.101037,2.45168132 66.05733,3.178373 66.2489683,3.86431561 L2.65027718,47.6440936 C2.26027649,47.5863657 1.85850853,47.6220212 1.49204236,47.7680387 C0.913765465,47.9870649 0.454842232,48.4285131 0.204367647,49.0074894 C-0.0578742004,49.6034445 -0.0662793878,50.2944808 0.170746897,50.8972274 L3.33109736,59.0809981 C3.70260665,60.05558 4.61877208,60.6617223 5.58536863,60.6617223 C5.86273981,60.6617223 6.14179204,60.6141818 6.41075803,60.5089133 C6.87640542,60.3255425 7.25800092,59.9978521 7.51351862,59.5818721 L83.008912,49.3063159 C83.5771026,50.0313097 84.4579663,50.4795494 85.4094335,50.4795494 C85.5808993,50.4795494 85.7540462,50.4642685 85.9641759,50.4286131 C86.1188313,50.3963534 86.2634005,50.3573022 86.4365474,50.2961786 C87.2131867,50.0160288 87.8267654,49.4506355 88.1713781,48.7035693 C88.5126287,47.9598988 88.5428874,47.124543 88.2604731,46.3554044 L88.2604731,46.3554044 Z M6.43261152,57.1590005 C6.0459729,57.2116347 5.71817059,57.4374525 5.52485128,57.7549556 L2.62169955,50.3165532 C3.07557967,50.4150301 3.55299431,50.2622211 3.85558106,49.8920837 L14.8815059,42.304268 L19.6220316,55.3626459 L6.43261152,57.1590005 L6.43261152,57.1590005 Z M22.1856138,55.0145809 L17.0315528,40.8254165 L67.1281509,6.34151926 L81.9582635,46.8800486 L22.1856138,55.0145809 L22.1856138,55.0145809 Z M85.881805,47.6322084 C85.8431412,47.7188002 85.7574083,47.8376516 85.5018906,47.9242434 L85.4094335,47.9327328 C85.2228383,47.9327328 84.9925362,47.8291622 84.9068033,47.5931572 L68.6747054,3.22591358 C68.6175501,3.0714067 68.6545329,2.93557648 68.6915157,2.85068259 C68.7268175,2.77427809 68.8125504,2.63675 68.9806542,2.57223064 C69.0428526,2.55185611 69.106732,2.53997096 69.1672493,2.53997096 C69.3538445,2.53997096 69.5807846,2.64523938 69.6681985,2.88633803 L85.8952533,47.2416965 C85.9574517,47.4097864 85.923831,47.5473145 85.881805,47.6322084 L85.881805,47.6322084 Z" id="Fill-198" stroke="#505050" stroke-width="1.5" fill="#505050"></path>
            </g>
        </g>
    </g>
</svg>