<?xml version="1.0" encoding="UTF-8" standalone="no"?>
<svg width="160px" height="120px" viewBox="0 0 160 120" version="1.1" xmlns="http://www.w3.org/2000/svg" xmlns:xlink="http://www.w3.org/1999/xlink">
    <!-- Generator: Sketch 3.8.3 (29802) - http://www.bohemiancoding.com/sketch -->
    <title>Artboard 3</title>
    <desc>Created with Sketch.</desc>
    <defs>
        <rect id="path-1" x="0" y="0" width="75" height="50" rx="3.99999976"></rect>
        <mask id="mask-2" maskContentUnits="userSpaceOnUse" maskUnits="objectBoundingBox" x="0" y="0" width="75" height="50" fill="white">
            <use xlink:href="#path-1"></use>
        </mask>
    </defs>
    <g id="Page-1" stroke="none" stroke-width="1" fill="none" fill-rule="evenodd">
        <g id="Artboard-3">
            <g id="Group-28-Copy" transform="translate(50.000000, 48.000000)">
                <ellipse id="Oval-61" fill="#F9524E" cx="40.2925532" cy="27.3809524" rx="17.9521277" ry="17.8571429"></ellipse>
                <g id="Group-27">
                    <path d="M43.0851064,20.3703704 C43.0851064,21.2237654 43.8,21.9135802 44.6808511,21.9135802 C45.5617021,21.9135802 46.2765957,21.2237654 46.2765957,20.3703704 C46.2765957,17.382716 43.5351064,14.8935185 39.893617,14.3225309 L39.893617,12.654321 C39.893617,11.8009259 39.1787234,11.1111111 38.2978723,11.1111111 C37.4170213,11.1111111 36.7021277,11.8009259 36.7021277,12.654321 L36.7021277,14.3225309 C33.0606383,14.8935185 30.3191489,17.382716 30.3191489,20.3703704 C30.3191489,23.3580247 33.0606383,25.8472222 36.7021277,26.4182099 L36.7021277,32.5277778 C34.8462766,32.1018519 33.5106383,30.970679 33.5106383,29.6296296 C33.5106383,28.7762346 32.7957447,28.0864198 31.9148936,28.0864198 C31.0340426,28.0864198 30.3191489,28.7762346 30.3191489,29.6296296 C30.3191489,32.617284 33.0606383,35.1064815 36.7021277,35.6774691 L36.7021277,37.345679 C36.7021277,38.1990741 37.4170213,38.8888889 38.2978723,38.8888889 C39.1787234,38.8888889 39.893617,38.1990741 39.893617,37.345679 L39.893617,35.6774691 C43.5351064,35.1064815 46.2765957,32.617284 46.2765957,29.6296296 C46.2765957,26.6419753 43.5351064,24.1527778 39.893617,23.5817901 L39.893617,17.4722222 C41.7494681,17.8966049 43.0851064,19.029321 43.0851064,20.3703704 L43.0851064,20.3703704 Z M36.7021277,23.2685185 C34.8462766,22.8425926 33.5106383,21.7114198 33.5106383,20.3703704 C33.5106383,19.029321 34.8462766,17.8966049 36.7021277,17.4722222 L36.7021277,23.2685185 L36.7021277,23.2685185 Z M43.0851064,29.6296296 C43.0851064,30.970679 41.7494681,32.1018519 39.893617,32.5277778 L39.893617,26.7314815 C41.7494681,27.1558642 43.0851064,28.2885802 43.0851064,29.6296296 L43.0851064,29.6296296 Z" id="Shape" fill="#505050"></path>
                    <use id="Rectangle-51" stroke="#505050" mask="url(#mask-2)" stroke-width="8" xlink:href="#path-1"></use>
                    <ellipse id="Oval-61" stroke="#505050" stroke-width="4" stroke-linecap="round" stroke-linejoin="round" cx="37.8989362" cy="25" rx="17.9521277" ry="17.8571429"></ellipse>
                    <ellipse id="Oval-61" fill="#505050" cx="9.97340426" cy="25" rx="3.59042553" ry="3.57142857"></ellipse>
                    <ellipse id="Oval-61" fill="#505050" cx="65.0265957" cy="25" rx="3.59042553" ry="3.57142857"></ellipse>
                </g>
            </g>
            <g id="Group-29" transform="translate(36.000000, 22.000000)" stroke="#505050" stroke-width="4" stroke-linecap="round" stroke-linejoin="round">
                <path d="M-1.42108547e-14,10 L84,10 L84,27.8632812 L84,31.9994562 C84,38.0748888 79.0689478,43 73.0028848,43 L69.0039062,43" id="Rectangle-121-Copy" transform="translate(42.000000, 26.500000) scale(-1, 1) translate(-42.000000, -26.500000) "></path>
                <path d="M84.5,10.5 L84.5,27.5" id="Line"></path>
                <rect id="Rectangle-123" transform="translate(42.500000, 5.000000) rotate(-90.000000) translate(-42.500000, -5.000000) " x="38" y="-12" width="9" height="34"></rect>
                <polyline id="Rectangle-123" transform="translate(9.000000, 52.500000) scale(1, -1) rotate(-90.000000) translate(-9.000000, -52.500000) " points="-4 46 22 46 22 59"></polyline>
            </g>
        </g>
    </g>
</svg>