<?xml version="1.0" encoding="UTF-8" standalone="no"?>
<svg width="160px" height="120px" viewBox="0 0 160 120" version="1.1" xmlns="http://www.w3.org/2000/svg" xmlns:xlink="http://www.w3.org/1999/xlink">
    <!-- Generator: Sketch 3.8.3 (29802) - http://www.bohemiancoding.com/sketch -->
    <title>Artboard 3</title>
    <desc>Created with Sketch.</desc>
    <defs>
        <path d="M72.4265357,3.364994 C67.9059643,-1.12166467 60.58125,-1.12166467 56.0606786,3.364994 L47.5286786,11.832988 L27.2979643,2.70654239 L27.2863929,2.73333983 C25.8631071,2.09020105 24.4976786,2.20504726 23.3289643,3.364994 L17.8749643,8.77807877 C16.3668214,10.2787359 16.3668214,12.6943346 17.8749643,14.1911635 L31.5099643,27.7277037 L22.3183929,36.8503211 L18.9588214,34.5533968 C18.2028214,33.8068965 17.2153929,33.4317322 16.2279643,33.4317322 L14.5038214,33.8336939 L2.13396429,40.693841 C2.13396429,40.693841 1.74825,40.7933743 1.13110714,41.4135439 C-0.377035714,42.9103728 -0.377035714,45.3336279 1.13110714,46.8304569 C1.13110714,46.8304569 16.9338214,57.113021 17.4159643,57.5915469 C17.7013929,57.871006 28.4281071,73.9265064 28.4281071,73.9265064 C29.93625,75.4233353 32.3778214,75.4233353 33.8898214,73.9265064 C34.5069643,73.310165 34.6149643,72.9273443 34.6149643,72.9273443 L41.4806786,60.6311433 C41.7506786,60.0913661 41.9319643,59.5247914 41.9319643,58.9390758 C41.9319643,57.9590548 41.5539643,56.9790338 40.8018214,56.2325334 L38.6649643,53.1202011 L47.8796786,43.9707862 L61.5185357,57.5073263 C63.0266786,59.0041553 65.4643929,59.0041553 66.9725357,57.5073263 L72.4303929,52.0942416 C73.5991071,50.9304666 73.5181071,49.3800428 72.8701071,47.9712626 L72.89325,47.9597779 L63.82125,28.1488065 L72.4265357,19.6119047 C76.9471071,15.1214179 76.9471071,7.85165266 72.4265357,3.364994 L72.4265357,3.364994 Z" id="path-1"></path>
        <mask id="mask-2" maskContentUnits="userSpaceOnUse" maskUnits="objectBoundingBox" x="0" y="0" width="75.8169643" height="75.0491281" fill="white">
            <use xlink:href="#path-1"></use>
        </mask>
    </defs>
    <g id="Page-1" stroke="none" stroke-width="1" fill="none" fill-rule="evenodd">
        <g id="Artboard-3">
            <g id="Group-4" transform="translate(41.000000, 2.000000)">
                <path d="M7.14894688,46.0685559 C7.77766117,45.4560428 8.17108974,45.348853 8.17108974,45.348853 L17.8949469,41.0153226 L19.653804,40.6133609 C20.6605183,40.6133609 21.6633755,40.9885252 22.4309469,41.7350255 L25.8483755,44.0319498 L37.4236612,33.0143699 L23.5495183,19.481658 C22.0143755,17.984829 21.0616612,16.5109693 22.5929469,15.0141403 L27.186804,10.2327097 C28.3786612,9.06893477 29.7633755,8.95791677 31.2136612,9.59722734 L31.2252326,9.57042989 L51.8069469,18.7007037 L61.4420897,9.60105555 C64.1305183,7.32327235 69.9972326,5.11439689 74.5949469,9.60105555 C79.1926612,14.0877142 76.3306612,19.1447757 74.274804,22.0542131 L64.2462326,31.8582513 L73.4763755,51.6692228 L73.4532326,51.6807075 C74.1089469,53.0894877 74.193804,54.6399115 73.0019469,55.8036865 L68.7243755,59.9534629 C67.1930897,61.4502919 65.3455183,60.8186377 63.8103755,59.3218087 L49.9362326,45.7890968 L38.6502326,56.515733 L40.821804,59.6280653 C41.5893755,60.3745657 41.9712326,61.3584149 41.9712326,62.3384359 C41.9712326,62.9241516 41.7899469,63.4945544 41.5122326,64.0305034 L37.3889469,73.8000878 C37.3889469,73.8000878 37.284804,74.1867367 36.6560897,74.7992498 C35.1209469,76.2960788 32.6369469,76.2960788 31.101804,74.7992498 C31.101804,74.7992498 22.731804,61.2741943 22.4425183,60.9947352 C21.9526612,60.5123811 7.14508974,51.4969535 7.14508974,51.4969535 C5.61766117,49.9924682 5.61766117,47.5653849 7.14894688,46.0685559 L7.14894688,46.0685559 Z" id="Shape" fill="#F9524E"></path>
                <use id="Path" stroke="#505050" mask="url(#mask-2)" stroke-width="8" xlink:href="#path-1"></use>
                <path d="M34,28 L49.34375,12.5722656" id="Line" stroke="#505050" stroke-width="4" stroke-linecap="square"></path>
                <path d="M46,43.4277344 L61.34375,28" id="Line-Copy-2" stroke="#505050" stroke-width="4" stroke-linecap="square"></path>
            </g>
        </g>
    </g>
</svg>