<?xml version="1.0" encoding="UTF-8" standalone="no"?>
<svg width="160px" height="120px" viewBox="0 0 160 120" version="1.1" xmlns="http://www.w3.org/2000/svg" xmlns:xlink="http://www.w3.org/1999/xlink">
    <!-- Generator: Sketch 3.8.3 (29802) - http://www.bohemiancoding.com/sketch -->
    <title>Artboard 3</title>
    <desc>Created with Sketch.</desc>
    <defs>
        <polyline id="path-1" points="-3.39374065 99.9530469 12.3411818 99.9530469 12.3411818 107.953047 -0.627552978 107.953047"></polyline>
        <rect id="path-3" x="-1.18023573e-12" y="5.64881475e-13" width="8" height="8"></rect>
    </defs>
    <g id="Page-1" stroke="none" stroke-width="1" fill="none" fill-rule="evenodd">
        <g id="Artboard-3">
            <g id="Group-31" transform="translate(21.000000, 9.000000)">
                <g id="Group-17-Copy-2" transform="translate(6.000000, 0.000000)">
                    <polygon id="Rectangle-70" fill="#CCFF00" transform="translate(71.810889, 42.954483) rotate(30.000000) translate(-71.810889, -42.954483) " points="106.810889 23.9544827 98.7487113 42.9903811 106.810889 61.9544827 36.8108891 61.9544827 36.8108891 23.9544827"></polygon>
                    <polygon id="Rectangle-70" stroke="#505050" stroke-width="4" stroke-linecap="round" stroke-linejoin="round" transform="translate(67.810889, 36.954483) rotate(30.000000) translate(-67.810889, -36.954483) " points="102.810889 17.9544827 93.8826859 37.4903811 102.810889 55.9544827 32.8108891 55.9544827 32.8108891 17.9544827"></polygon>
                    <g id="Group-16">
                        <g id="Group-15" transform="translate(32.598076, 50.758330) rotate(-330.000000) translate(-32.598076, -50.758330) translate(28.098076, -5.241670)">
                            <mask id="mask-2" fill="white">
                                <use xlink:href="#path-1"></use>
                            </mask>
                            <use id="Rectangle-71" stroke="#505050" stroke-width="3.5999999" stroke-linecap="round" stroke-linejoin="round" transform="translate(4.473721, 103.953047) rotate(-270.000000) translate(-4.473721, -103.953047) " xlink:href="#path-1"></use>
                            <mask id="mask-4" fill="white">
                                <use xlink:href="#path-3"></use>
                            </mask>
                            <use id="Rectangle-71" stroke="#505050" stroke-width="3.5999999" stroke-linecap="round" stroke-linejoin="round" transform="translate(4.000000, 4.000000) scale(1, -1) rotate(-270.000000) translate(-4.000000, -4.000000) " xlink:href="#path-3"></use>
                        </g>
                        <path d="M20.5,63.5 L33.5,40.5" id="Line" stroke="#505050" stroke-width="4" stroke-linecap="round" stroke-linejoin="round"></path>
                        <path d="M28.1767578,66.5263672 L41.5,43.5" id="Line" stroke="#505050" stroke-width="4" stroke-linecap="round" stroke-linejoin="round"></path>
                    </g>
                </g>
                <g id="thumbs_up-copy" transform="translate(24.500000, 66.000000) rotate(19.000000) translate(-24.500000, -66.000000) translate(7.000000, 44.000000)" stroke="#505050" stroke-width="1.5" fill="#505050">
                    <path d="M33.7695238,25.1 C34.5295238,25.766 35,26.72 35,27.782 C35,29.3282 33.9866667,30.716 32.5752381,31.2002 C32.9733333,31.778 33.1904762,32.462 33.1904762,33.2 C33.1904762,34.946 32.34,36.44 30.6933333,36.782 C31.3809524,36.782 31.6161905,38.06 31.4714286,38.906 C31.1819048,40.598 28.7951429,41.876 26.9657143,42.182 C25.6085714,42.416 25.3389524,42.632 24.2333333,42.848 C20.9761905,43.46 17.2847619,44 12.3809524,44 C5.37809524,44 1.3247619,40.058 1.14380952,39.878 L0.619047619,39.356 L0.619047619,24.812 L0.70952381,24.524 C0.763809524,24.3998 1.84952381,21.608 5.45047619,16.0118 C10.2819048,8.4878 9.72095238,14.3378 13.9009524,3.3218 C14.48,1.7558 15.6019048,0.7298 17.1219048,0.7298 L17.3390476,0.7478 C19.1666667,0.8558 20.5780952,2.3138 20.5238095,4.0598 C20.4333333,7.7678 19.8180952,11.0078 18.66,13.3838 C18.0266667,14.7158 17.4114286,15.9758 17.067619,17.3258 C16.9228571,17.9378 16.9590476,18.3338 17.067619,18.4598 C17.1761905,18.5858 17.6104762,18.8 18.6057143,18.8 L25.047619,18.8 C25.5542857,18.8 25.952381,19.196 25.952381,19.7 C25.952381,20.204 25.5542857,20.6 25.047619,20.6 L18.6057143,20.6 C15.4752381,20.6 14.8057143,18.926 15.312381,16.892 C16.3438095,12.788 18.587619,8.954 18.7142857,4.004 C18.7504762,3.248 18.0809524,2.582 17.2304762,2.528 C16.38,2.474 15.9095238,3.104 15.6561905,3.806 C11.4761905,15.182 11.367619,10.376 6.95238095,17 C3.35142857,22.418 2.42857143,25.1 2.42857143,25.1 L2.42857143,38.6 C2.42857143,38.6 6.04761905,42.2 12.3809524,42.2 C18.7142857,42.2 21.247619,41.3 26.6761905,40.4 C27.6533333,40.238 29.5714286,39.608 29.5714286,38.6 C29.5714286,36.818 28.4857143,36.8 28.4495238,36.8 L24.8304762,36.8 C23.9257143,36.8 23.9257143,35 24.8304762,35 L29.5714286,35 C30.5666667,35 31.3809524,34.208 31.3809524,33.2 C31.3809524,32.21 30.5666667,31.4 29.5714286,31.4 L26.64,31.4 C25.7352381,31.4 25.7352381,29.6 26.64,29.6 L31.3809524,29.6 C32.3761905,29.6 33.1904762,28.772 33.1904762,27.782 C33.1904762,26.792 32.3761905,26 31.3809524,26 L26.64,26 C25.7352381,26 25.7352381,24.2 26.64,24.2 L31.3809524,24.2 C32.3761905,24.2 33.1904762,23.408 33.1904762,22.4 C33.1904762,21.41 32.3761905,20.6 31.3809524,20.6 L28.6666667,20.6 C28.16,20.6 27.7619048,20.204 27.7619048,19.7 C27.7619048,19.196 28.16,18.8 28.6666667,18.8 L31.3809524,18.8 C33.3714286,18.8 35,20.42 35,22.4 C35,23.48 34.5295238,24.452 33.7695238,25.1 L33.7695238,25.1 Z" id="Shape"></path>
                </g>
            </g>
        </g>
    </g>
</svg>