<?xml version="1.0" encoding="UTF-8" standalone="no"?>
<svg width="160px" height="120px" viewBox="0 0 160 120" version="1.1" xmlns="http://www.w3.org/2000/svg" xmlns:xlink="http://www.w3.org/1999/xlink">
    <!-- Generator: Sketch 3.8.3 (29802) - http://www.bohemiancoding.com/sketch -->
    <title>Artboard 3</title>
    <desc>Created with Sketch.</desc>
    <defs></defs>
    <g id="Page-1" stroke="none" stroke-width="1" fill="none" fill-rule="evenodd">
        <g id="Artboard-3">
            <g id="Group-34" transform="translate(36.000000, 26.000000)">
                <rect id="Rectangle-80-Copy-7" stroke="#505050" stroke-width="4" stroke-linecap="round" stroke-linejoin="round" x="0" y="0" width="88" height="67"></rect>
                <path d="M48.5,56 C59.8218374,56 69,46.8218374 69,35.5 C69,24.1781626 59.8218374,15 48.5,15 C37.1781626,15 28,24.1781626 28,35.5 C28,46.8218374 37.1781626,56 48.5,56 Z M41,46 L41,26 L61,36 L41,46 Z" id="Combined-Shape" fill="#F9524E"></path>
                <polygon id="Triangle-1" stroke="#505050" stroke-width="4" stroke-linecap="round" stroke-linejoin="round" points="37 43 37 23 57 33"></polygon>
                <g id="Group-26" transform="translate(8.000000, 7.000000)" stroke="#505050" stroke-width="4" stroke-linecap="round" stroke-linejoin="round">
                    <rect id="Rectangle-100" x="63" y="0" width="9" height="9"></rect>
                    <rect id="Rectangle-100" x="63" y="14.6666667" width="9" height="9"></rect>
                    <rect id="Rectangle-100" x="63" y="29.3333333" width="9" height="9"></rect>
                    <rect id="Rectangle-100" x="63" y="44" width="9" height="9"></rect>
                    <rect id="Rectangle-100" x="0" y="0" width="9" height="9"></rect>
                    <rect id="Rectangle-100" x="0" y="14.6666667" width="9" height="9"></rect>
                    <rect id="Rectangle-100" x="0" y="29.3333333" width="9" height="9"></rect>
                    <rect id="Rectangle-100" x="0" y="44" width="9" height="9"></rect>
                </g>
                <circle id="Oval-58" stroke="#505050" stroke-width="4" stroke-linecap="round" stroke-linejoin="round" cx="44.5" cy="32.5" r="20.5"></circle>
            </g>
        </g>
    </g>
</svg>