<?xml version="1.0" encoding="UTF-8" standalone="no"?>
<svg width="160px" height="120px" viewBox="0 0 160 120" version="1.1" xmlns="http://www.w3.org/2000/svg" xmlns:xlink="http://www.w3.org/1999/xlink">
    <!-- Generator: Sketch 3.8.3 (29802) - http://www.bohemiancoding.com/sketch -->
    <title>Artboard 3</title>
    <desc>Created with Sketch.</desc>
    <defs></defs>
    <g id="Page-1" stroke="none" stroke-width="1" fill="none" fill-rule="evenodd">
        <g id="Artboard-3">
            <g id="Express-delivery-Copy" transform="translate(35.000000, 16.000000)">
                <g id="color_31_" transform="translate(25.000000, 30.000000)" fill="#CCFF00">
                    <path d="M63.538,29.808 L45.832,1.972 C45.28,1.01 44.056,0.68 43.1,1.236 L1.68,25.262 C0.722,25.818 0.396,27.052 0.948,28.014 L18.504,56 C19.056,56.962 20.28,57.292 21.236,56.736 L62.806,32.56 C63.762,32.004 64.09,30.774 63.538,29.808 L63.538,29.808 Z" id="Shape"></path>
                </g>
                <g id="outline_30_" fill="#384D68">
                    <path d="M35.022,77.008 L3.022,77.008 C1.918,77.008 1.022,77.894 1.022,79.008 C1.022,80.122 1.918,81.008 3.022,81.008 L35.022,81.008 C36.126,81.008 37.022,80.122 37.022,79.008 C37.022,77.894 36.126,77.008 35.022,77.008 L35.022,77.008 Z M5.022,71.008 C5.022,72.122 5.918,73.008 7.022,73.008 L31.022,73.008 C32.126,73.008 33.022,72.122 33.022,71.008 C33.022,69.894 32.126,69.008 31.022,69.008 L7.022,69.008 C5.916,69.008 5.022,69.894 5.022,71.008 L5.022,71.008 Z M11.022,61.008 L3.022,61.008 C1.918,61.008 1.022,61.894 1.022,63.008 C1.022,64.122 1.918,65.008 3.022,65.008 L11.022,65.008 C12.126,65.008 13.022,64.122 13.022,63.008 C13.022,61.894 12.126,61.008 11.022,61.008 L11.022,61.008 Z M88.748,54.722 L78.598,37.352 C78.996,37.226 79.38,37.062 79.738,36.86 C80.704,36.308 81.504,35.526 82.038,34.798 C83.156,33.272 83.192,31.862 83.026,30.946 C83.01,30.856 82.99,30.766 82.97,30.678 C83.166,30.588 83.37,30.48 83.552,30.378 C85.302,29.358 86.51,27.558 86.704,25.674 C86.962,23.148 85.486,20.866 83.64,19.38 C84.71,16.462 84.97,13.358 84.41,10.128 C83.91,7.238 82.576,2.222 79.29,1.11 C78.72,0.916 78.094,0.952 77.592,1.29 C77.086,1.594 76.744,2.112 76.656,2.702 L76.534,3.606 C76.35,5.044 76.282,5.58 75.422,6.532 C74.552,7.49 73.516,8.428 72.248,9.4 C69.668,11.368 66.954,13.172 64.174,14.756 C61.542,16.258 58.56,17.96 56.84,20.996 C55.218,23.86 54.934,26.842 55.884,29.748 L37.868,40.024 C35.796,37.758 33.038,36.51 29.72,36.468 C26.196,36.422 23.214,38.12 20.582,39.622 C17.804,41.206 14.866,42.63 11.85,43.85 C10.366,44.45 9.026,44.87 7.75,45.134 C6.486,45.394 5.98,45.182 4.628,44.622 L3.774,44.274 C3.214,44.054 2.59,44.086 2.068,44.368 C1.522,44.63 1.178,45.148 1.062,45.732 C0.394,49.1 4.124,52.748 6.406,54.622 C8.958,56.716 11.808,58.046 14.902,58.588 C15.282,60.91 16.544,63.314 18.888,64.356 C20.636,65.134 22.818,65 24.588,64.012 C24.77,63.91 24.964,63.79 25.142,63.666 C25.208,63.728 25.278,63.79 25.348,63.848 C26.068,64.448 27.322,65.122 29.218,64.928 C30.124,64.836 31.21,64.542 32.176,63.99 C32.534,63.784 32.868,63.538 33.178,63.262 L43.328,80.632 C43.886,81.586 45.12,81.912 46.084,81.36 L88.01,57.446 C88.974,56.894 89.304,55.676 88.748,54.722 L88.748,54.722 Z M60.398,23.064 C61.582,20.972 63.956,19.618 66.25,18.31 C69.182,16.638 72.046,14.736 74.764,12.66 C76.226,11.542 77.438,10.446 78.47,9.304 C78.972,8.75 79.344,8.222 79.622,7.71 C79.918,8.57 80.192,9.594 80.392,10.742 C80.91,13.736 80.528,16.58 79.256,19.198 C78.768,20.2 79.192,21.424 80.204,21.936 C81.474,22.578 82.768,23.998 82.648,25.176 C82.584,25.792 82.102,26.462 81.446,26.844 C81.212,26.952 80.592,27.282 80.032,27.046 C79.06,26.636 77.954,27.02 77.466,27.934 C76.98,28.85 77.272,30 78.144,30.596 C78.638,30.934 78.964,31.306 79.016,31.594 C79.06,31.834 78.886,32.134 78.734,32.342 C78.284,32.956 77.566,33.472 77.1,33.516 C77.006,33.526 76.962,33.52 76.858,33.428 C76.618,33.216 76.342,33.084 76.054,33 L70.594,23.658 C70.038,22.704 68.804,22.378 67.84,22.928 L59.534,27.666 C59.254,26.148 59.502,24.644 60.398,23.064 L60.398,23.064 Z M30.606,59.808 C30.636,59.94 30.616,59.984 30.562,60.058 C30.29,60.436 29.478,60.792 28.716,60.87 C28.458,60.896 28.108,60.896 27.918,60.738 C27.694,60.55 27.53,60.084 27.48,59.492 C27.392,58.45 26.53,57.622 25.484,57.582 C24.44,57.542 23.548,58.296 23.422,59.332 C23.348,59.928 22.75,60.294 22.54,60.442 C21.876,60.812 21.046,60.89 20.476,60.636 C19.384,60.15 18.786,58.334 18.858,56.928 C18.916,55.806 18.054,54.83 16.932,54.746 C14.002,54.528 11.316,53.432 8.952,51.492 C8.046,50.746 7.284,50 6.68,49.316 C7.266,49.334 7.916,49.278 8.652,49.126 C10.168,48.814 11.736,48.326 13.446,47.634 C16.626,46.346 19.724,44.846 22.656,43.174 C24.95,41.866 27.324,40.512 29.75,40.546 C31.584,40.57 33.026,41.11 34.218,42.106 L25.912,46.842 C24.948,47.392 24.618,48.612 25.174,49.564 L30.632,58.906 C30.562,59.196 30.54,59.496 30.606,59.808 L30.606,59.808 Z M45.812,76.912 L29.674,49.296 L68.106,27.376 L84.244,54.99 L45.812,76.912 L45.812,76.912 Z M67.64,34.546 C67.084,33.592 65.848,33.266 64.886,33.818 C64.21,34.202 64.112,34.608 64.112,34.608 L55.71,49.004 L39.022,49.008 C37.918,49.008 37.022,49.894 37.022,51.008 C37.022,52.122 37.918,53.008 39.022,53.008 L56.828,53.032 C56.828,53.032 57.226,53.156 57.908,52.766 C58.248,52.57 58.478,52.278 58.65,51.96 L58.682,51.976 L67.678,36.48 L67.646,36.464 C67.956,35.876 68,35.164 67.64,34.546 L67.64,34.546 Z" id="Shape"></path>
                </g>
            </g>
        </g>
    </g>
</svg>