<?xml version="1.0" encoding="UTF-8" standalone="no"?>
<svg width="160px" height="120px" viewBox="0 0 160 120" version="1.1" xmlns="http://www.w3.org/2000/svg" xmlns:xlink="http://www.w3.org/1999/xlink">
    <!-- Generator: Sketch 3.8.3 (29802) - http://www.bohemiancoding.com/sketch -->
    <title>Artboard 3</title>
    <desc>Created with Sketch.</desc>
    <defs>
        <rect id="path-1" x="0.669872981" y="55.0358984" width="42" height="8"></rect>
        <rect id="path-3" x="17.669873" y="-8.96410162" width="8" height="8"></rect>
    </defs>
    <g id="Page-1" stroke="none" stroke-width="1" fill="none" fill-rule="evenodd">
        <g id="Artboard-3">
            <g id="Group-17" transform="translate(32.000000, 17.000000)">
                <polygon id="Rectangle-70" fill="#F9524E" transform="translate(60.500000, 45.000000) rotate(30.000000) translate(-60.500000, -45.000000) " points="49 26 77.8199615 26 91 45 77.8199615 64 30 64 30 26"></polygon>
                <g id="Group-16">
                    <g id="Group-15" transform="translate(47.080127, 55.263140) rotate(-330.000000) translate(-47.080127, -55.263140) translate(16.580127, 14.763140)">
                        <polyline id="Rectangle-70" stroke="#505050" stroke-width="4" stroke-linecap="round" stroke-linejoin="round" points="19 -3.87245791e-13 47.8199615 -3.87245791e-13 61 19 47.8199615 38 -1.77635684e-13 38 0.133974537 28.2895574"></polyline>
                        <mask id="mask-2" fill="white">
                            <use xlink:href="#path-1"></use>
                        </mask>
                        <use id="Rectangle-71" stroke="#505050" stroke-width="3.5999999" stroke-linecap="round" stroke-linejoin="round" transform="translate(21.669873, 59.035898) rotate(-270.000000) translate(-21.669873, -59.035898) " xlink:href="#path-1"></use>
                        <mask id="mask-4" fill="white">
                            <use xlink:href="#path-3"></use>
                        </mask>
                        <use id="Rectangle-71" stroke="#505050" stroke-width="3.5999999" stroke-linecap="round" stroke-linejoin="round" transform="translate(21.669873, -4.964102) scale(1, -1) rotate(-270.000000) translate(-21.669873, 4.964102) " xlink:href="#path-3"></use>
                    </g>
                    <g id="Group-14" transform="translate(31.756098, 0.412831)" stroke="#505050" stroke-width="4" stroke-linecap="round" stroke-linejoin="round">
                        <path d="M0.5,0.5 L23.586792,23.586792" id="Line"></path>
                        <path d="M0.5,0.5 L23.586792,23.586792" id="Line" transform="translate(12.000000, 12.000000) scale(-1, 1) translate(-12.000000, -12.000000) "></path>
                    </g>
                </g>
            </g>
        </g>
    </g>
</svg>