<?xml version="1.0" encoding="UTF-8" standalone="no"?>
<svg width="61px" height="53px" viewBox="0 0 61 53" version="1.1" xmlns="http://www.w3.org/2000/svg" xmlns:xlink="http://www.w3.org/1999/xlink">
    <!-- Generator: Sketch 3.8.3 (29802) - http://www.bohemiancoding.com/sketch -->
    <title>Group 35 Copy</title>
    <desc>Created with Sketch.</desc>
    <defs></defs>
    <g id="Page-1" stroke="none" stroke-width="1" fill="none" fill-rule="evenodd">
        <g id="Group-35-Copy" transform="translate(-4.000000, -4.000000)">
            <g id="Group-6-Copy-2">
                <g id="Group-5-Copy" transform="translate(8.995978, 29.422939)">
                    <path d="M0,0 L10.0930489,0 L10.0930489,5.19550678 C10.0930489,7.98205774 8.25394921,11.563526 5.98853598,13.1926165 L9.33295388,10.7875986 C7.06609401,12.4177294 3.31125119,12.5366431 0.958976666,11.0611653 L3.38508829,12.5829578 C1.51555565,11.4102827 0,8.66156512 0,6.46052794 L0,0 Z" id="Rectangle-7-Copy" fill="#E7E7E7"></path>
                    <path d="M0,0 L4.168868,0 L4.168868,11.0396492 C4.168868,12.187645 3.38473582,12.62479 2.40089266,12.0056133 L1.76797535,11.60729 C0.791549525,10.9927813 0,9.56329582 0,8.4086762 L0,0 Z" id="Rectangle-7" fill="#FFFFFF"></path>
                </g>
                <path d="M13.6454175,32.4782154 C18.2089249,32.4782154 27.6861337,32.5875352 27.6861337,32.5875352 C27.6861337,32.5875352 28.5972466,5.08134022 28.5972466,5.08134023 C28.5972466,5.08134025 14.9499902,4.93548387 13.6454175,4.93548387 C9.08191002,4.93548387 5.3824563,11.1011343 5.3824563,18.7068496 C5.3824563,26.3125649 9.08191002,32.4782154 13.6454175,32.4782154 Z" id="Oval-3-Copy-8" fill="#FF5F5B" transform="translate(16.989851, 18.761510) rotate(30.000000) translate(-16.989851, -18.761510) "></path>
                <path d="M46.8444336,57.2749428 C48.5190508,57.2749428 50.6138301,57.0319983 50.6138301,57.0319983 C50.6138301,57.0319983 59.6496891,44.9289454 59.6496891,35.9332162 C59.6496891,26.050442 49.8540638,14.4607275 49.8540638,14.4607274 C49.8540638,14.4607274 47.9868147,14.5914896 46.8444336,14.5914896 C39.7722862,14.5914896 34.039178,24.1465061 34.039178,35.9332162 C34.039178,47.7199263 39.7722862,57.2749428 46.8444336,57.2749428 Z" id="Oval-3-Copy-9" fill="#FF5F5C" transform="translate(46.844434, 35.867835) rotate(30.000000) translate(-46.844434, -35.867835) "></path>
                <path d="M49.3101246,58.5923115 C56.1567417,58.5923115 61.7070215,49.0375064 61.7070215,37.2510569 C61.7070215,25.4646075 56.1567417,15.9098023 49.3101246,15.9098023 C42.4635074,15.9098023 36.9132276,25.4646075 36.9132276,37.2510569 C36.9132276,49.0375064 42.4635074,58.5923115 49.3101246,58.5923115 Z" id="Oval-3-Copy-10" fill="#D52723" transform="translate(49.310125, 37.251057) rotate(30.000000) translate(-49.310125, -37.251057) "></path>
                <ellipse id="Oval-3-Copy-11" fill="#FF5F5C" transform="translate(49.417433, 37.416371) rotate(30.000000) translate(-49.417433, -37.416371) " cx="49.4174325" cy="37.4163707" rx="10.7675979" ry="18.6825703"></ellipse>
                <path d="M38.7333937,52.429626 C43.9000699,53.919429 51.2687498,49.1816263 55.9754901,41.029313 C60.6348941,32.9589885 61.092092,24.302581 57.3429705,20.5111071 C52.1762942,19.0213041 44.8076143,23.7591068 40.100874,31.9114201 C35.44147,39.9817446 34.9842721,48.6381521 38.7333937,52.429626 Z" id="Combined-Shape-Copy" fill="#E7E7E7"></path>
                <path d="M44.7207523,25.7023369 C42.9801447,27.4477586 41.3469414,29.5682866 39.9486694,31.9901647 C38.5382783,34.4330337 37.5129183,36.9296031 36.8727033,39.3286891 C38.1087832,40.1988782 39.6559575,40.9104966 40.852494,41.6013173 C43.7141377,43.253488 47.8006716,41.5327999 49.9800229,37.7580527 C52.1593742,33.9833055 51.6064494,29.5840601 48.7446232,27.9317486 C48.0162901,27.5112363 46.3870179,26.4353882 44.7207523,25.7023369 Z" id="Combined-Shape-Copy-2" fill="#F9524E"></path>
                <ellipse id="Oval-3-Copy-12" fill="#E33D39" transform="translate(26.778041, 24.465553) rotate(30.000000) translate(-26.778041, -24.465553) " cx="26.778041" cy="24.4655525" rx="8.25471538" ry="13.757623"></ellipse>
                <path d="M31.5870481,46.4135375 C31.0911361,45.9106502 24.0286114,38.7502433 21.0187329,35.7802663 C17.8984742,32.7013724 17.7811014,27.3220884 21.2731937,21.273607 C24.7652861,15.2251257 29.1585729,12.7008756 33.3537416,13.6514629 C35.6087986,14.1624384 46.9983933,16.8537477 48.7016989,17.2563553 C44.0665828,19.0772408 39.2323995,23.4365736 35.7456079,29.4758737 C32.3507263,35.3559813 30.9736969,41.5459744 31.5870481,46.4135375 Z" id="Combined-Shape-Copy-3" fill="#FFFFFF"></path>
                <ellipse id="Oval-3-Copy-13" fill="#E53631" transform="translate(46.408082, 35.750834) rotate(30.000000) translate(-46.408082, -35.750834) " cx="46.408082" cy="35.7508344" rx="3.93239672" ry="6.55388212"></ellipse>
            </g>
        </g>
    </g>
</svg>