<?xml version="1.0" encoding="UTF-8" standalone="no"?>
<svg width="160px" height="120px" viewBox="0 0 160 120" version="1.1" xmlns="http://www.w3.org/2000/svg" xmlns:xlink="http://www.w3.org/1999/xlink">
    <!-- Generator: Sketch 39.1 (31720) - http://www.bohemiancoding.com/sketch -->
    <title>Artboard 3</title>
    <desc>Created with Sketch.</desc>
    <defs></defs>
    <g id="Page-1" stroke="none" stroke-width="1" fill="none" fill-rule="evenodd">
        <g id="Artboard-3">
            <g id="Review-items-Copy-2" transform="translate(40.000000, 16.000000)">
                <g id="color_51_" transform="translate(8.000000, 8.000000)" fill="#CCFF00">
                    <path d="M70,0 L60,0 L60,8 C60,10.208 58.208,12 56,12 L52,12 C49.792,12 48,10.208 48,8 L48,0 L20,0 L20,8 C20,10.208 18.208,12 16,12 L12,12 C9.792,12 8,10.208 8,8 L8,0 L2,0 C0.894,0 0,0.894 0,2 L0,78 C0,79.106 0.894,80 2,80 L70,80 C71.106,80 72,79.106 72,78 L72,2 C72,0.894 71.106,0 70,0 L70,0 Z" id="Shape"></path>
                </g>
                <g id="outline_49_" fill="#384D68">
                    <path d="M23.43,52.57 C22.68,51.82 21.466,51.82 20.716,52.57 L18,55.286 L15.286,52.572 C14.536,51.822 13.322,51.822 12.572,52.572 C11.822,53.32 11.822,54.536 12.572,55.286 L15.286,58 L12.572,60.714 C11.822,61.464 11.822,62.68 12.572,63.428 C13.322,64.178 14.536,64.178 15.286,63.428 L18,60.714 L20.714,63.428 C21.464,64.178 22.678,64.178 23.428,63.428 C24.178,62.68 24.178,61.464 23.428,60.714 L20.714,58 L23.428,55.286 C24.18,54.536 24.18,53.318 23.43,52.57 L23.43,52.57 Z M23.43,32.57 C22.68,31.82 21.466,31.82 20.716,32.57 L18,35.286 L15.286,32.572 C14.536,31.822 13.322,31.822 12.572,32.572 C11.822,33.32 11.822,34.536 12.572,35.286 L15.286,38 L12.572,40.714 C11.822,41.464 11.822,42.678 12.572,43.428 C13.322,44.178 14.536,44.178 15.286,43.428 L18,40.714 L20.714,43.428 C21.464,44.178 22.678,44.178 23.428,43.428 C24.178,42.678 24.178,41.464 23.428,40.714 L20.714,38 L23.428,35.286 C24.18,34.536 24.18,33.318 23.43,32.57 L23.43,32.57 Z M74,8 L64,8 L64,4 C64,1.792 62.208,0 60,0 L56,0 C53.792,0 52,1.792 52,4 L52,8 L24,8 L24,4 C24,1.792 22.208,0 20,0 L16,0 C13.792,0 12,1.792 12,4 L12,8 L2,8 C0.894,8 0,8.894 0,10 L0,86 C0,87.106 0.894,88 2,88 L74,88 C75.106,88 76,87.106 76,86 L76,10 C76,8.894 75.106,8 74,8 L74,8 Z M56,6 C56,4.894 56.894,4 58,4 C59.106,4 60,4.894 60,6 L60,14 C60,15.106 59.106,16 58,16 C56.894,16 56,15.106 56,14 L56,6 L56,6 Z M16,6 C16,4.894 16.894,4 18,4 C19.106,4 20,4.894 20,6 L20,14 C20,15.106 19.106,16 18,16 C16.894,16 16,15.106 16,14 L16,6 L16,6 Z M72,84 L4,84 L4,12 L12,12 L12,16 C12,18.208 13.792,20 16,20 L20,20 C22.208,20 24,18.208 24,16 L24,12 L52,12 L52,16 C52,18.208 53.792,20 56,20 L60,20 C62.208,20 64,18.208 64,16 L64,12 L72,12 L72,84 L72,84 Z M60,36 L32,36 C30.894,36 30,36.894 30,38 C30,39.106 30.894,40 32,40 L60,40 C61.106,40 62,39.106 62,38 C62,36.894 61.106,36 60,36 L60,36 Z M52,56 L32,56 C30.894,56 30,56.894 30,58 C30,59.106 30.894,60 32,60 L52,60 C53.106,60 54,59.106 54,58 C54,56.894 53.106,56 52,56 L52,56 Z" id="Shape"></path>
                </g>
            </g>
        </g>
    </g>
</svg>