<?xml version="1.0" encoding="UTF-8" standalone="no"?>
<svg width="160px" height="120px" viewBox="0 0 160 120" version="1.1" xmlns="http://www.w3.org/2000/svg" xmlns:xlink="http://www.w3.org/1999/xlink">
    <!-- Generator: Sketch 3.8.3 (29802) - http://www.bohemiancoding.com/sketch -->
    <title>Artboard 3</title>
    <desc>Created with Sketch.</desc>
    <defs></defs>
    <g id="Page-1" stroke="none" stroke-width="1" fill="none" fill-rule="evenodd">
        <g id="Artboard-3">
            <g id="Shopping-cart-Copy" transform="translate(36.000000, 16.000000)">
                <g id="color_17_" transform="translate(26.000000, 30.000000)" fill="#F9524E">
                    <path d="M60,0 L2,0 C0.894,0 0,0.894 0,2 L4,32 C4,33.106 4.894,34 6,34 L52,34 C53.106,34 54,33.106 54,32 L62,2 C62,0.894 61.106,0 60,0 L60,0 Z" id="Shape"></path>
                </g>
                <g id="outline_16_" fill="#505050">
                    <path d="M30,76 C26.688,76 24,78.686 24,82 C24,85.314 26.688,88 30,88 C33.312,88 36,85.314 36,82 C36,78.686 33.312,76 30,76 L30,76 Z M30,84 C28.894,84 28,83.106 28,82 C28,80.894 28.894,80 30,80 C31.106,80 32,80.894 32,82 C32,83.106 31.106,84 30,84 L30,84 Z M79.904,58.476 L79.942,58.484 L87.942,26.484 L87.904,26.476 C87.944,26.32 88,26.168 88,26 C88,24.894 87.106,24 86,24 L19.258,24 L15.978,1.708 L15.942,1.714 C15.798,0.752 15.004,0 14,0 L2,0 C0.894,0 0,0.894 0,2 C0,3.106 0.894,4 2,4 L12.274,4 L22.022,70.292 L22.06,70.286 C22.202,71.248 22.996,72 24,72 L80,72 C81.106,72 82,71.106 82,70 C82,68.894 81.106,68 80,68 L25.726,68 L24.55,60 L78,60 C78.936,60 79.686,59.344 79.904,58.476 L79.904,58.476 Z M24,56 C23.988,56 23.976,56.008 23.964,56.008 L19.844,28 L83.438,28 L81.438,36 L34,36 C32.894,36 32,36.894 32,38 C32,39.106 32.894,40 34,40 L80.438,40 L79.438,44 L48,44 C46.894,44 46,44.894 46,46 C46,47.106 46.894,48 48,48 L78.438,48 L76.438,56 L24,56 L24,56 Z M72,76 C68.688,76 66,78.686 66,82 C66,85.314 68.688,88 72,88 C75.312,88 78,85.314 78,82 C78,78.686 75.312,76 72,76 L72,76 Z M72,84 C70.894,84 70,83.106 70,82 C70,80.894 70.894,80 72,80 C73.106,80 74,80.894 74,82 C74,83.106 73.106,84 72,84 L72,84 Z" id="Shape"></path>
                </g>
            </g>
        </g>
    </g>
</svg>