<?xml version="1.0" encoding="UTF-8" standalone="no"?>
<svg width="160px" height="120px" viewBox="0 0 160 120" version="1.1" xmlns="http://www.w3.org/2000/svg" xmlns:xlink="http://www.w3.org/1999/xlink">
    <!-- Generator: Sketch 3.8.3 (29802) - http://www.bohemiancoding.com/sketch -->
    <title>Artboard 3</title>
    <desc>Created with Sketch.</desc>
    <defs></defs>
    <g id="Page-1" stroke="none" stroke-width="1" fill="none" fill-rule="evenodd">
        <g id="Artboard-3">
            <g id="Group-25" transform="translate(5.000000, 11.000000)">
                <rect id="Rectangle-80-Copy-3" stroke="#505050" stroke-width="4" stroke-linecap="round" stroke-linejoin="round" transform="translate(105.000000, 68.447431) rotate(-90.000000) translate(-105.000000, -68.447431) " x="76.66171" y="38.4474312" width="56.6765799" height="60"></rect>
                <g id="Group-22" transform="translate(88.000000, 49.000000)" stroke-linecap="round" stroke="#505050" stroke-width="4" stroke-linejoin="round">
                    <g id="Group-21" transform="translate(0.000000, 0.808219)">
                        <path d="M1.5,0.47260274 L1.5,11.8150685" id="Line"></path>
                        <path d="M11.5,0.47260274 L11.5,11.8150685" id="Line"></path>
                        <path d="M21.5,0.47260274 L21.5,11.8150685" id="Line"></path>
                        <path d="M31.5,0.47260274 L31.5,11.8150685" id="Line"></path>
                    </g>
                    <g id="Group-21" transform="translate(0.000000, 19.712329)">
                        <path d="M1.5,0.47260274 L1.5,11.8150685" id="Line"></path>
                        <path d="M11.5,0.47260274 L11.5,11.8150685" id="Line"></path>
                        <path d="M21.5,0.47260274 L21.5,11.8150685" id="Line"></path>
                        <path d="M31.5,0.47260274 L31.5,11.8150685" id="Line"></path>
                    </g>
                </g>
                <rect id="Rectangle-80-Copy-3" stroke="#505050" stroke-width="4" stroke-linecap="round" stroke-linejoin="round" transform="translate(45.000000, 48.785721) rotate(-90.000000) translate(-45.000000, -48.785721) " x="-3" y="18.7857212" width="96" height="60"></rect>
                <g id="Group-22" transform="translate(28.000000, 12.000000)">
                    <rect id="Rectangle-80-Copy-2" fill="#F9524E" x="1" y="10" width="40" height="31"></rect>
                    <g id="Group-21" stroke="#505050" stroke-width="4" stroke-linecap="round" stroke-linejoin="round">
                        <path d="M1.5,0.164999999 L1.5,4.12499996" id="Line"></path>
                        <path d="M11.5,0.164999999 L11.5,4.12499996" id="Line"></path>
                        <path d="M21.5,0.164999999 L21.5,4.12499996" id="Line"></path>
                        <path d="M31.5,0.164999999 L31.5,4.12499996" id="Line"></path>
                    </g>
                    <g id="Group-21" transform="translate(0.000000, 37.808219)" stroke="#505050" stroke-width="4" stroke-linecap="round" stroke-linejoin="round">
                        <path d="M1.5,0.47260274 L1.5,11.8150685" id="Line"></path>
                        <path d="M11.5,0.47260274 L11.5,11.8150685" id="Line"></path>
                        <path d="M21.5,0.47260274 L21.5,11.8150685" id="Line"></path>
                        <path d="M31.5,0.47260274 L31.5,11.8150685" id="Line"></path>
                    </g>
                    <g id="Group-21" transform="translate(0.000000, 56.712329)" stroke="#505050" stroke-width="4" stroke-linecap="round" stroke-linejoin="round">
                        <path d="M1.5,0.47260274 L1.5,11.8150685" id="Line"></path>
                        <path d="M11.5,0.47260274 L11.5,11.8150685" id="Line"></path>
                        <path d="M21.5,0.47260274 L21.5,11.8150685" id="Line"></path>
                        <path d="M31.5,0.47260274 L31.5,11.8150685" id="Line"></path>
                    </g>
                </g>
                <g id="Group-23" transform="translate(24.000000, 17.000000)" stroke="#505050" stroke-width="4" stroke-linecap="round" stroke-linejoin="round">
                    <rect id="Rectangle-80-Copy-6" x="0" y="0" width="40" height="31"></rect>
                </g>
                <path d="M0.5,96.5 L149.473145,96.5" id="Line" stroke="#505050" stroke-width="4" stroke-linecap="round" stroke-linejoin="round"></path>
            </g>
        </g>
    </g>
</svg>