<svg width="153" height="72" viewBox="0 0 153 72" fill="none" xmlns="http://www.w3.org/2000/svg">
<path d="M63.6499 19.7103C64.8509 19.7103 65.8356 20.0213 66.6283 20.6432C67.4209 21.2651 67.9253 22.1262 68.1414 23.1787H65.7396C65.5714 22.7482 65.2832 22.4133 64.9229 22.1502C64.5626 21.911 64.1303 21.7914 63.6259 21.7914C62.9534 21.7914 62.425 22.0306 62.0166 22.509C61.6083 22.9874 61.4162 23.6332 61.4162 24.4465C61.4162 25.2598 61.6083 25.9056 62.0166 26.3841C62.425 26.8625 62.9534 27.1017 63.6259 27.1017C64.1303 27.1017 64.5626 26.9821 64.9229 26.7429C65.2832 26.5037 65.5714 26.1688 65.7396 25.7382H68.1414C67.9013 26.7907 67.3969 27.6518 66.6283 28.2738C65.8356 28.8957 64.8509 29.2306 63.6499 29.2306C62.7372 29.2306 61.9446 29.0392 61.248 28.6326C60.5515 28.2259 60.0231 27.6757 59.6388 26.9342C59.2545 26.2166 59.0623 25.3794 59.0623 24.4704C59.0623 23.5615 59.2545 22.7243 59.6388 22.0066C60.0231 21.289 60.5515 20.715 61.248 20.3083C61.9446 19.9017 62.7372 19.7103 63.6499 19.7103ZM69.3904 19.7103C69.3904 19.3754 69.5105 19.0884 69.7507 18.8492C69.9909 18.6339 70.3272 18.5143 70.7355 18.5143C71.1438 18.5143 71.4801 18.6339 71.7202 18.8492C71.9604 19.0645 72.0805 19.3515 72.0805 19.7103C72.0805 20.0452 71.9604 20.3322 71.7202 20.5475C71.4801 20.7628 71.1438 20.8824 70.7355 20.8824C70.3272 20.8824 69.9909 20.7628 69.7507 20.5475C69.5105 20.3083 69.3904 20.0452 69.3904 19.7103ZM71.8884 21.7674V29.1588H69.6066V21.7674H71.8884ZM81.0155 21.7674V29.1588H78.7337V27.8193C78.5176 28.2498 78.2053 28.5847 77.773 28.8478C77.3407 29.111 76.8603 29.2306 76.3078 29.2306C75.4672 29.2306 74.7706 28.9435 74.2903 28.3934C73.7859 27.8193 73.5457 27.0538 73.5457 26.0731V21.7674H75.8035V25.786C75.8035 26.2884 75.9235 26.6711 76.1878 26.9581C76.452 27.2452 76.8122 27.3648 77.2446 27.3648C77.7009 27.3648 78.0612 27.2213 78.3254 26.9342C78.5896 26.6472 78.7337 26.2405 78.7337 25.6904V21.7674H81.0155ZM85.5791 21.6957C86.1556 21.6957 86.6359 21.8153 87.0443 22.0784C87.4526 22.3415 87.7408 22.6764 87.933 23.1309V19.3754H90.2148V29.1588H87.933V27.8193C87.7408 28.2498 87.4526 28.6086 87.0443 28.8718C86.6359 29.1349 86.1556 29.2545 85.5791 29.2545C84.9786 29.2545 84.4262 29.111 83.9458 28.8C83.4655 28.489 83.0812 28.0585 82.7929 27.4844C82.5047 26.9103 82.3846 26.2405 82.3846 25.4751C82.3846 24.7096 82.5287 24.0159 82.7929 23.4658C83.0812 22.8917 83.4414 22.4611 83.9458 22.1502C84.4262 21.8392 84.9546 21.6957 85.5791 21.6957ZM86.2997 23.6571C85.8193 23.6571 85.411 23.8246 85.1228 24.1355C84.8345 24.4465 84.6664 24.901 84.6664 25.4512C84.6664 26.0252 84.8105 26.4558 85.1228 26.7668C85.411 27.0777 85.8193 27.2452 86.2997 27.2452C86.7801 27.2452 87.1644 27.0777 87.4766 26.7668C87.7889 26.4558 87.933 26.0013 87.933 25.4512C87.933 24.901 87.7889 24.4465 87.4766 24.1355C87.1644 23.8246 86.7801 23.6571 86.2997 23.6571ZM94.7783 21.6957C95.3548 21.6957 95.8352 21.8153 96.2435 22.0784C96.6518 22.3415 96.94 22.6764 97.1562 23.1309V21.7674H99.414V29.1588H97.1562V27.8193C96.964 28.2498 96.6518 28.6086 96.2435 28.8718C95.8352 29.1349 95.3548 29.2545 94.7783 29.2545C94.1779 29.2545 93.6254 29.111 93.145 28.8C92.6647 28.489 92.2804 28.0585 91.9921 27.4844C91.7039 26.9103 91.5838 26.2405 91.5838 25.4751C91.5838 24.7096 91.7279 24.0159 91.9921 23.4658C92.2804 22.8917 92.6407 22.4611 93.145 22.1502C93.6014 21.8392 94.1538 21.6957 94.7783 21.6957ZM95.4989 23.6571C95.0185 23.6571 94.6102 23.8246 94.322 24.1355C94.0338 24.4465 93.8656 24.901 93.8656 25.4512C93.8656 26.0252 94.0097 26.4558 94.322 26.7668C94.6102 27.0777 95.0185 27.2452 95.4989 27.2452C95.9793 27.2452 96.3636 27.0777 96.6758 26.7668C96.9881 26.4319 97.1322 26.0013 97.1322 25.4512C97.1322 24.901 96.9881 24.4465 96.6758 24.1355C96.3636 23.8246 95.9793 23.6571 95.4989 23.6571ZM103.954 21.6957C104.53 21.6957 105.01 21.8153 105.419 22.0784C105.827 22.3415 106.115 22.6764 106.307 23.1309V19.3754H108.589V29.1588H106.307V27.8193C106.115 28.2498 105.827 28.6086 105.419 28.8718C105.01 29.1349 104.53 29.2545 103.954 29.2545C103.353 29.2545 102.801 29.111 102.32 28.8C101.84 28.489 101.456 28.0585 101.167 27.4844C100.879 26.9103 100.759 26.2405 100.759 25.4751C100.759 24.7096 100.903 24.0159 101.167 23.4658C101.456 22.8917 101.816 22.4611 102.32 22.1502C102.801 21.8392 103.353 21.6957 103.954 21.6957ZM104.698 23.6571C104.218 23.6571 103.809 23.8246 103.521 24.1355C103.233 24.4465 103.065 24.901 103.065 25.4512C103.065 26.0252 103.209 26.4558 103.521 26.7668C103.809 27.0777 104.218 27.2452 104.698 27.2452C105.178 27.2452 105.563 27.0777 105.875 26.7668C106.187 26.4319 106.331 26.0013 106.331 25.4512C106.331 24.901 106.187 24.4465 105.875 24.1355C105.563 23.8246 105.178 23.6571 104.698 23.6571ZM113.153 21.6957C113.729 21.6957 114.21 21.8153 114.618 22.0784C115.026 22.3415 115.314 22.6764 115.531 23.1309V21.7674H117.788V29.1588H115.531V27.8193C115.338 28.2498 115.026 28.6086 114.618 28.8718C114.21 29.1349 113.729 29.2545 113.153 29.2545C112.552 29.2545 112 29.111 111.519 28.8C111.039 28.489 110.655 28.0585 110.367 27.4844C110.078 26.9103 109.958 26.2405 109.958 25.4751C109.958 24.7096 110.102 24.0159 110.367 23.4658C110.655 22.8917 111.015 22.4611 111.519 22.1502C112 21.8392 112.552 21.6957 113.153 21.6957ZM113.873 23.6571C113.393 23.6571 112.985 23.8246 112.696 24.1355C112.408 24.4465 112.24 24.901 112.24 25.4512C112.24 26.0252 112.384 26.4558 112.696 26.7668C112.985 27.0777 113.393 27.2452 113.873 27.2452C114.354 27.2452 114.738 27.0777 115.05 26.7668C115.362 26.4558 115.507 26.0013 115.507 25.4512C115.507 24.901 115.362 24.4465 115.05 24.1355C114.738 23.8246 114.354 23.6571 113.873 23.6571ZM124.225 21.6957C125.066 21.6957 125.763 21.9827 126.243 22.5329C126.723 23.0831 126.988 23.8724 126.988 24.8532V29.1349H124.706V25.1402C124.706 24.6379 124.586 24.2552 124.322 23.992C124.057 23.705 123.721 23.5854 123.289 23.5854C122.832 23.5854 122.472 23.7289 122.184 24.0159C121.92 24.303 121.776 24.7096 121.776 25.2598V29.1827H119.494V21.7674H121.776V23.107C121.992 22.6764 122.304 22.3176 122.736 22.0545C123.169 21.8153 123.673 21.6957 124.225 21.6957ZM131.215 21.7674V29.1588H128.933V21.7674H131.215ZM131.984 19.8777L128.789 21.2412V19.7103L131.984 18.1794V19.8777ZM136.043 21.6957C136.619 21.6957 137.1 21.8153 137.508 22.0784C137.916 22.3415 138.204 22.6764 138.421 23.1309V21.7674H140.678V29.1588H138.421V27.8193C138.228 28.2498 137.916 28.6086 137.508 28.8718C137.1 29.1349 136.619 29.2545 136.043 29.2545C135.442 29.2545 134.89 29.111 134.409 28.8C133.929 28.489 133.545 28.0585 133.257 27.4844C132.968 26.9103 132.848 26.2405 132.848 25.4751C132.848 24.7096 132.992 24.0159 133.257 23.4658C133.545 22.8917 133.905 22.4611 134.409 22.1502C134.89 21.8392 135.442 21.6957 136.043 21.6957ZM136.763 23.6571C136.283 23.6571 135.875 23.8246 135.586 24.1355C135.298 24.4465 135.13 24.901 135.13 25.4512C135.13 26.0252 135.274 26.4558 135.586 26.7668C135.875 27.0777 136.283 27.2452 136.763 27.2452C137.244 27.2452 137.628 27.0777 137.94 26.7668C138.252 26.4558 138.397 26.0013 138.397 25.4512C138.397 24.901 138.252 24.4465 137.94 24.1355C137.628 23.8246 137.244 23.6571 136.763 23.6571ZM61.6323 33.7754V43.1282H59.3505V33.7754C59.3505 33.7754 61.6323 33.7754 61.6323 33.7754ZM68.0934 35.6651C68.9341 35.6651 69.6306 35.9522 70.111 36.5023C70.6154 37.0764 70.8556 37.8419 70.8556 38.8226V43.1043H68.5738V39.0857C68.5738 38.5834 68.4537 38.2007 68.1895 37.9375C67.9253 37.6744 67.589 37.5309 67.1567 37.5309C66.7003 37.5309 66.34 37.6744 66.0518 37.9615C65.7876 38.2485 65.6435 38.6551 65.6435 39.2053V43.1282H63.3617V35.7369H65.6435V37.0764C65.8597 36.6458 66.1719 36.287 66.6042 36.0239C67.0366 35.7608 67.5169 35.6651 68.0934 35.6651ZM76.7642 41.1907V43.1282H75.7314C74.8667 43.1282 74.1942 42.913 73.7138 42.4824C73.2334 42.0518 72.9932 41.3581 72.9932 40.3535V37.6505H72.0085V35.7369H72.9932V33.9189H75.275V35.7369H76.7642V37.6505H75.275V40.4013C75.275 40.6884 75.3231 40.9037 75.4432 40.9993C75.5633 41.1189 75.7554 41.1668 76.0436 41.1668L76.7642 41.1907ZM85.2669 39.2292C85.2669 39.4206 85.2429 39.612 85.1948 39.8272H80.0548C80.0788 40.3774 80.2229 40.7841 80.4871 41.0233C80.7513 41.2625 81.0636 41.3821 81.4719 41.3821C81.8082 41.3821 82.0964 41.2864 82.3126 41.1189C82.5287 40.9515 82.6728 40.7362 82.7449 40.4731H85.1468C85.0507 40.9993 84.8345 41.4538 84.4983 41.8605C84.162 42.2671 83.7537 42.602 83.2493 42.8173C82.7449 43.0565 82.1925 43.1761 81.568 43.1761C80.8474 43.1761 80.1989 43.0326 79.6465 42.7216C79.094 42.4106 78.6377 41.9801 78.3254 41.406C78.0132 40.8319 77.8451 40.1621 77.8451 39.3967C77.8451 38.6312 78.0132 37.9375 78.3254 37.3874C78.6377 36.8133 79.07 36.3827 79.6465 36.0718C80.2229 35.7608 80.8714 35.6173 81.592 35.6173C82.3366 35.6173 82.9851 35.7608 83.5375 36.0718C84.0899 36.3827 84.5223 36.7894 84.8345 37.3395C85.0987 37.9136 85.2669 38.5355 85.2669 39.2292ZM82.9611 38.8944C82.9611 38.4159 82.841 38.0571 82.5768 37.794C82.3126 37.5548 81.9763 37.4352 81.568 37.4352C81.1597 37.4352 80.7994 37.5548 80.5352 37.794C80.271 38.0332 80.1028 38.392 80.0788 38.8704L82.9611 38.8944ZM88.8937 33.3449V43.1282H86.6119V33.3449H88.8937ZM90.4309 33.6797C90.4309 33.3449 90.551 33.0578 90.7912 32.8186C91.0314 32.6033 91.3677 32.4837 91.776 32.4837C92.1843 32.4837 92.5206 32.6033 92.7608 32.8186C93.0009 33.0339 93.121 33.3209 93.121 33.6797C93.121 34.0146 93.0009 34.3017 92.7608 34.5169C92.5206 34.7322 92.1843 34.8518 91.776 34.8518C91.3677 34.8518 91.0314 34.7322 90.7912 34.5169C90.551 34.2777 90.4309 34.0146 90.4309 33.6797ZM92.9289 35.7369V43.1282H90.6471V35.7369H92.9289ZM97.4925 35.6651C98.0689 35.6651 98.5493 35.7847 98.9576 36.0478C99.3659 36.311 99.6542 36.6458 99.8703 37.1003V35.7608H102.128V43.1043C102.128 43.798 101.984 44.4199 101.72 44.9701C101.456 45.5203 101.047 45.9508 100.495 46.2857C99.9424 46.6206 99.2699 46.7641 98.4532 46.7641C97.3483 46.7641 96.4356 46.501 95.7871 45.9748C95.1146 45.4485 94.7063 44.7309 94.5862 43.8458H96.8199C96.892 44.1568 97.0601 44.3721 97.3003 44.5395C97.5645 44.707 97.8768 44.8027 98.2851 44.8027C98.7655 44.8027 99.1257 44.6591 99.414 44.396C99.7022 44.1329 99.8463 43.7023 99.8463 43.1043V41.8126C99.6542 42.2432 99.3419 42.602 98.9336 42.8651C98.5253 43.1282 98.0449 43.2478 97.4684 43.2478C96.868 43.2478 96.3155 43.1043 95.8352 42.7934C95.3548 42.4824 94.9705 42.0518 94.6823 41.4777C94.394 40.9037 94.2739 40.2339 94.2739 39.4684C94.2739 38.703 94.4181 38.0093 94.6823 37.4591C94.9705 36.8851 95.3308 36.4545 95.8352 36.1435C96.3396 35.8086 96.892 35.6651 97.4925 35.6651ZM98.213 37.6266C97.7326 37.6266 97.3243 37.794 97.0361 38.105C96.7479 38.4159 96.5797 38.8704 96.5797 39.4206C96.5797 39.9708 96.7239 40.4253 97.0361 40.7362C97.3483 41.0472 97.7326 41.2146 98.213 41.2146C98.6934 41.2146 99.0777 41.0472 99.3899 40.7362C99.7022 40.4253 99.8463 39.9708 99.8463 39.4206C99.8463 38.8704 99.7022 38.4159 99.3899 38.105C99.0777 37.794 98.6934 37.6266 98.213 37.6266ZM110.919 39.2292C110.919 39.4206 110.895 39.612 110.847 39.8272H105.707C105.731 40.3774 105.875 40.7841 106.139 41.0233C106.403 41.2625 106.716 41.3821 107.124 41.3821C107.46 41.3821 107.749 41.2864 107.965 41.1189C108.181 40.9515 108.325 40.7362 108.397 40.4731H110.799C110.703 40.9993 110.487 41.4538 110.15 41.8605C109.814 42.2671 109.406 42.602 108.901 42.8173C108.397 43.0565 107.845 43.1761 107.22 43.1761C106.5 43.1761 105.851 43.0326 105.299 42.7216C104.746 42.4106 104.29 41.9801 103.978 41.406C103.665 40.8319 103.497 40.1621 103.497 39.3967C103.497 38.6312 103.665 37.9375 103.978 37.3874C104.29 36.8133 104.722 36.3827 105.299 36.0718C105.875 35.7608 106.524 35.6173 107.244 35.6173C107.989 35.6173 108.637 35.7608 109.19 36.0718C109.742 36.3827 110.174 36.7894 110.487 37.3395C110.799 37.8897 110.919 38.5355 110.919 39.2292ZM108.613 38.8944C108.613 38.4159 108.493 38.0571 108.229 37.794C107.965 37.5548 107.628 37.4352 107.22 37.4352C106.812 37.4352 106.451 37.5548 106.187 37.794C105.923 38.0332 105.755 38.392 105.731 38.8704L108.613 38.8944ZM116.972 35.6651C117.812 35.6651 118.509 35.9522 118.989 36.5023C119.494 37.0764 119.734 37.8419 119.734 38.8226V43.1043H117.452V39.0857C117.452 38.5834 117.332 38.2007 117.068 37.9375C116.804 37.6505 116.467 37.5309 116.035 37.5309C115.579 37.5309 115.218 37.6744 114.93 37.9615C114.666 38.2485 114.522 38.6551 114.522 39.2053V43.1282H112.24V35.7369H114.522V37.0764C114.738 36.6458 115.05 36.287 115.483 36.0239C115.915 35.7847 116.419 35.6651 116.972 35.6651ZM125.643 41.1907V43.1282H124.61C123.745 43.1282 123.073 42.913 122.592 42.4824C122.112 42.0518 121.872 41.3581 121.872 40.3535V37.6505H120.887V35.7369H121.872V33.9189H124.153V35.7369H125.643V37.6505H124.153V40.4013C124.153 40.6884 124.201 40.9037 124.322 40.9993C124.442 41.1189 124.634 41.1668 124.922 41.1668L125.643 41.1907ZM134.145 39.2292C134.145 39.4206 134.121 39.612 134.073 39.8272H128.933C128.957 40.3774 129.101 40.7841 129.365 41.0233C129.63 41.2625 129.942 41.3821 130.35 41.3821C130.686 41.3821 130.975 41.2864 131.191 41.1189C131.407 40.9515 131.551 40.7362 131.623 40.4731H134.025C133.929 40.9993 133.713 41.4538 133.377 41.8605C133.04 42.2671 132.632 42.602 132.128 42.8173C131.623 43.0565 131.071 43.1761 130.446 43.1761C129.726 43.1761 129.077 43.0326 128.525 42.7216C127.972 42.4106 127.516 41.9801 127.204 41.406C126.892 40.8319 126.723 40.1621 126.723 39.3967C126.723 38.6312 126.892 37.9375 127.204 37.3874C127.516 36.8133 127.948 36.3827 128.525 36.0718C129.101 35.7608 129.75 35.6173 130.47 35.6173C131.215 35.6173 131.863 35.7608 132.416 36.0718C132.968 36.3827 133.401 36.7894 133.713 37.3395C134.001 37.9136 134.145 38.5355 134.145 39.2292ZM131.839 38.8944C131.839 38.4159 131.719 38.0571 131.455 37.794C131.191 37.5548 130.855 37.4352 130.446 37.4352C130.038 37.4352 129.678 37.5548 129.413 37.794C129.149 38.0332 128.981 38.392 128.957 38.8704L131.839 38.8944Z" fill="white"/>
<path d="M23.6585 19.7103C23.7786 19.5907 23.8987 19.4472 23.9948 19.3276C24.6914 18.2512 24.3551 16.792 23.2742 16.0983C22.8899 15.8591 22.4576 15.7395 22.0012 15.7395C21.1846 15.7395 20.44 16.1701 20.0077 16.8159C19.6714 17.3661 19.5513 17.988 19.6954 18.586C19.8395 19.1841 20.1998 19.7342 20.7523 20.0452C21.1366 20.2844 21.5689 20.404 22.0253 20.404C22.6017 20.404 23.2022 20.1169 23.6585 19.7103Z" fill="#17BBC2"/>
<path d="M17.5337 24.4944C17.1494 24.2552 16.7171 24.1356 16.2607 24.1356C15.4441 24.1356 14.6995 24.5661 14.2672 25.212C13.9309 25.7621 13.8108 26.3841 13.9549 26.9821C14.099 27.5801 14.4593 28.1302 15.0118 28.4412C15.3961 28.6804 15.8284 28.8 16.2848 28.8C16.9092 28.8 17.5097 28.5608 17.9421 28.1063C18.0621 27.9867 18.1822 27.8432 18.2783 27.7236C18.9508 26.6233 18.6146 25.188 17.5337 24.4944Z" fill="#17BBC2"/>
<path d="M27.8138 21.4086C27.3815 21.1455 26.9011 21.0498 26.4207 21.1694C25.9403 21.289 25.508 21.5522 25.2678 21.9827C25.0036 22.4133 24.9075 22.8917 25.0276 23.3701C25.1477 23.8485 25.4119 24.2791 25.8443 24.5422C26.1565 24.7335 26.5168 24.8531 26.829 24.8531C27.3094 24.8531 27.7898 24.6618 28.1261 24.303C28.2221 24.2073 28.3182 24.0877 28.3662 23.9681C28.9187 23.1309 28.6545 21.9827 27.8138 21.4086Z" fill="#17BBC2"/>
<path d="M23.6585 27.4605C23.2262 27.1973 22.7458 27.1017 22.2654 27.2213C21.7851 27.3409 21.3527 27.604 21.1125 28.0346C20.8483 28.4651 20.7523 28.9435 20.8723 29.4219C20.9924 29.9003 21.2566 30.3309 21.689 30.594C22.0012 30.7854 22.3615 30.905 22.6738 30.905C23.1541 30.905 23.6345 30.7136 23.9708 30.3548C24.0669 30.2591 24.1629 30.1395 24.211 30.0199C24.7634 29.1588 24.5232 28.0346 23.6585 27.4605Z" fill="#17BBC2"/>
<path d="M22.2895 34.9236C21.8571 34.6605 21.3768 34.5648 20.8964 34.6844C20.416 34.804 19.9837 35.0671 19.7435 35.4977C19.4793 35.9282 19.3832 36.4066 19.5033 36.8851C19.6234 37.3635 19.8876 37.794 20.3199 38.0332C20.6322 38.2246 20.9925 38.3442 21.3047 38.3442C21.7851 38.3442 22.2655 38.1528 22.6017 37.794C22.6978 37.6983 22.7939 37.5787 22.8419 37.4591C23.3943 36.598 23.1301 35.4498 22.2895 34.9236Z" fill="#D3326F"/>
<path d="M23.6585 42.004C23.2262 41.7409 22.7458 41.6452 22.2654 41.7648C21.7851 41.8844 21.3527 42.1475 21.1125 42.5781C20.8483 43.0086 20.7523 43.487 20.8723 43.9654C20.9924 44.4439 21.2566 44.8744 21.689 45.1136C22.0012 45.305 22.3615 45.4246 22.6738 45.4246C23.1541 45.4246 23.6345 45.2332 23.9708 44.8744C24.0669 44.7787 24.1629 44.6591 24.211 44.5635C24.7634 43.6784 24.5232 42.5542 23.6585 42.004Z" fill="#E8453B"/>
<path d="M17.5337 44.2525C17.1494 44.0133 16.7171 43.8937 16.2607 43.8937C15.4441 43.8937 14.6995 44.3242 14.2672 44.9701C13.9309 45.5203 13.8108 46.1422 13.9549 46.7402C14.099 47.3382 14.4593 47.8884 15.0118 48.1993C15.3961 48.4385 15.8284 48.5581 16.2848 48.5581C16.9092 48.5581 17.5097 48.3189 17.9421 47.8645C18.0621 47.7449 18.1822 47.6013 18.2783 47.4817C18.9508 46.4053 18.6146 44.9462 17.5337 44.2525Z" fill="#17BBC2"/>
<path d="M16.2367 38.105C16.3568 37.9854 16.4769 37.8419 16.573 37.7223C17.2695 36.6459 16.9333 35.1867 15.8524 34.493C15.4681 34.2538 15.0358 34.1342 14.5794 34.1342C13.7628 34.1342 13.0182 34.5648 12.5859 35.2106C12.2496 35.7608 12.1295 36.3827 12.2736 36.9807C12.4177 37.5787 12.778 38.1289 13.3305 38.4399C13.7148 38.6791 14.1471 38.7987 14.6034 38.7987C15.2279 38.7987 15.8284 38.5595 16.2367 38.105Z" fill="#17BBC2"/>
<path d="M51.2802 58.198C50.8959 57.9588 50.4636 57.8392 50.0072 57.8392C49.1906 57.8392 48.446 58.2698 48.0136 58.9156C47.6774 59.4658 47.5573 60.0877 47.7014 60.6857C47.8455 61.2837 48.2058 61.8339 48.7582 62.1448C49.1425 62.384 49.5749 62.5036 50.0312 62.5036C50.6557 62.5036 51.2562 62.2644 51.6885 61.81C51.8086 61.6904 51.9287 61.5468 52.0248 61.4272C52.6973 60.3508 52.3611 58.8917 51.2802 58.198Z" fill="#17BBC2"/>
<path d="M31.1524 58.198C30.7681 57.9588 30.3358 57.8392 29.8794 57.8392C29.0628 57.8392 28.3182 58.2698 27.8859 58.9156C27.5496 59.4658 27.4295 60.0877 27.5736 60.6857C27.7177 61.2837 28.078 61.8339 28.6304 62.1448C29.0147 62.384 29.4471 62.5036 29.9034 62.5036C30.5279 62.5036 31.1284 62.2644 31.5607 61.81C31.6808 61.6904 31.8009 61.5468 31.897 61.4272C32.5695 60.3508 32.2333 58.8917 31.1524 58.198Z" fill="#17BBC2"/>
<path d="M39.9193 43.8219C40.2315 43.8219 40.4958 43.7262 40.6639 43.511C40.8801 43.2957 40.9761 43.0565 40.9761 42.7694C40.9761 42.4824 40.8801 42.1953 40.6639 42.0279C40.4477 41.8126 40.2075 41.7169 39.9193 41.7169C38.4782 41.7169 37.2532 41.2146 36.2204 40.186C35.1876 39.1575 34.6832 37.9375 34.6832 36.5023C34.6832 36.1914 34.5871 35.9282 34.371 35.7608C34.1548 35.5455 33.9146 35.4498 33.6264 35.4498C33.3381 35.4498 33.0499 35.5455 32.8818 35.7608C32.6656 35.9761 32.5695 36.2153 32.5695 36.5023C32.5695 37.8179 32.9058 39.014 33.5543 40.1621C34.2268 41.3103 35.1155 42.1953 36.2204 42.8651C37.3733 43.511 38.5983 43.8219 39.9193 43.8219ZM39.9433 47.9841C42.057 47.9841 44.0025 47.4817 45.7799 46.4292C47.5573 45.4007 48.9744 44.0133 49.9832 42.2193C51.016 40.4492 51.5204 38.5116 51.5204 36.3827C51.5204 34.9475 51.2802 33.5601 50.7758 32.2924C50.2714 31.0007 49.5749 29.8286 48.6381 28.7522C47.8455 27.891 47.1009 26.7429 46.4044 25.4033C45.7078 24.1834 45.3235 23.2744 45.2275 22.7003H34.7072C34.6111 23.2505 34.2509 24.1355 33.6023 25.4033C32.8578 26.7429 32.0892 27.891 31.2965 28.7522C30.3598 29.8047 29.6633 30.9767 29.1589 32.2924C28.6545 33.5841 28.4143 34.9475 28.4143 36.3827C28.4143 38.392 28.8947 40.3056 29.8794 42.0757C30.8642 43.8458 32.2333 45.2811 33.9866 46.3336C35.764 47.4578 37.7576 47.9841 39.9433 47.9841ZM47.125 30.0917C47.9176 30.9528 48.518 31.9575 48.9024 33.0339C49.2867 34.1103 49.5028 35.2106 49.5028 36.3588C49.5028 38.0571 49.0705 39.6598 48.2058 41.095C47.3651 42.5302 46.1882 43.7023 44.7471 44.5635C43.306 45.4246 41.6727 45.8551 39.9433 45.8551C38.214 45.8551 36.5807 45.4246 35.1396 44.5635C33.6984 43.7023 32.5455 42.5542 31.7529 41.0711C30.9363 39.612 30.5279 38.0093 30.5279 36.3827C30.5279 34.0146 31.3206 31.9336 32.9058 30.1156C33.4582 29.5415 33.9866 28.8 34.5631 27.8671C35.2356 26.8146 35.764 25.7621 36.2204 24.7814H43.8824C44.3388 25.81 44.8672 26.8146 45.5397 27.8671C46.0921 28.7761 46.6206 29.5176 47.125 30.0917Z" fill="white"/>
<path d="M36.5326 14.3522H43.426C44.3628 14.3522 45.1074 15.0937 45.1074 16.0266V16.6963H34.8513V16.0266C34.8513 15.0937 35.5959 14.3522 36.5326 14.3522Z" fill="white"/>
<path d="M45.1074 18.6578H34.8513V21.002H45.1074V18.6578Z" fill="white"/>
<path d="M41.2163 59.8724C40.832 59.6332 40.3997 59.5136 39.9433 59.5136C39.1267 59.5136 38.3821 59.9442 37.9498 60.59C37.6135 61.1402 37.4934 61.7621 37.6375 62.3601C37.7816 62.9581 38.1419 63.5083 38.6943 63.8193C39.0786 64.0585 39.511 64.1781 39.9673 64.1781C40.5918 64.1781 41.1923 63.9389 41.6246 63.4844C41.7447 63.3648 41.8648 63.2213 41.9609 63.1017C42.6334 62.0252 42.2972 60.5661 41.2163 59.8724Z" fill="#17BBC2"/>
<path d="M38.9586 56.6671C39.2708 56.8585 39.6311 56.9781 39.9433 56.9781C40.4237 56.9781 40.9041 56.7867 41.2403 56.4279C41.3364 56.3322 41.4325 56.2126 41.4805 56.093C42.033 55.2319 41.7928 54.0837 40.9041 53.5575C40.4717 53.2944 39.9914 53.1987 39.511 53.3183C39.0306 53.4379 38.5983 53.701 38.3581 54.1316C38.0939 54.5621 37.9978 55.0405 38.1179 55.5189C38.262 56.0213 38.5502 56.4279 38.9586 56.6671Z" fill="#17BBC2"/>
<path d="M48.8063 54.9449C49.3587 54.0837 49.1185 52.9355 48.2298 52.4093C47.7975 52.1462 47.3171 52.0505 46.8367 52.1701C46.3564 52.2897 45.924 52.5528 45.6838 52.9834C45.4196 53.414 45.3235 53.8924 45.4436 54.3708C45.5637 54.8492 45.8279 55.2797 46.2603 55.5189C46.5725 55.7103 46.9328 55.8299 47.245 55.8299C47.7254 55.8299 48.2058 55.6385 48.5421 55.2797C48.6622 55.1362 48.7582 55.0166 48.8063 54.9449Z" fill="#17BBC2"/>
<path d="M33.6504 52.3854C33.218 52.1223 32.7377 52.0266 32.2573 52.1462C31.7769 52.2658 31.3446 52.5289 31.1044 52.9595C30.8402 53.39 30.7441 53.8684 30.8642 54.3468C30.9843 54.8252 31.2485 55.2558 31.6808 55.495C31.9931 55.6864 32.3534 55.806 32.6656 55.806C33.146 55.806 33.6264 55.6146 33.9626 55.2558C34.0587 55.1601 34.1548 55.0405 34.2028 54.9209C34.467 54.4904 34.5631 54.012 34.443 53.5336C34.3229 53.0552 34.0587 52.6246 33.6504 52.3854Z" fill="#17BBC2"/>
<path d="M23.0101 52.6963C22.6257 52.4571 22.1934 52.3375 21.7371 52.3375C20.9204 52.3375 20.1758 52.7681 19.7435 53.414C19.4072 53.9641 19.2871 54.586 19.4312 55.184C19.5754 55.7821 19.9356 56.3322 20.4881 56.6432C20.8724 56.8824 21.3047 57.002 21.7611 57.002C22.3856 57.002 22.986 56.7628 23.4184 56.3083C23.5385 56.1887 23.6586 56.0452 23.7546 55.9256C24.4031 54.8492 24.0909 53.414 23.0101 52.6963Z" fill="#17BBC2"/>
<path d="M59.4226 52.6963C59.0383 52.4571 58.606 52.3375 58.1496 52.3375C57.333 52.3375 56.5884 52.7681 56.1561 53.414C55.8198 53.9641 55.6997 54.586 55.8438 55.184C55.9879 55.7821 56.3482 56.3322 56.9006 56.6432C57.2849 56.8824 57.7173 57.002 58.1736 57.002C58.7981 57.002 59.3986 56.7628 59.8309 56.3083C59.951 56.1887 60.0711 56.0452 60.1672 55.9256C60.8397 54.8492 60.5035 53.414 59.4226 52.6963Z" fill="#17BBC2"/>
<path d="M27.6217 48.295C27.1893 48.0319 26.709 47.9362 26.2286 48.0558C25.7482 48.1754 25.3159 48.4385 25.0757 48.8691C24.8115 49.2997 24.7154 49.7781 24.8355 50.2565C24.9556 50.7349 25.2198 51.1654 25.6521 51.4046C25.9644 51.596 26.3247 51.7156 26.6369 51.7156C27.1173 51.7156 27.5977 51.5242 27.9339 51.1654C28.03 51.0698 28.1261 50.9502 28.1741 50.8306C28.7506 49.9694 28.5104 48.8213 27.6217 48.295Z" fill="#F8B126"/>
<path d="M54.2586 48.295C53.8262 48.0319 53.3459 47.9362 52.8655 48.0558C52.3851 48.1754 51.9528 48.4385 51.7126 48.8691C51.4484 49.2997 51.3523 49.7781 51.4724 50.2565C51.5925 50.7349 51.8567 51.1654 52.289 51.4046C52.6013 51.596 52.9616 51.7156 53.2738 51.7156C53.7542 51.7156 54.2346 51.5242 54.5708 51.1654C54.6669 51.0698 54.763 50.9502 54.811 50.8306C55.3634 49.9694 55.0992 48.8213 54.2586 48.295Z" fill="#17BBC2"/>
</svg>
