<svg width="247" height="72" viewBox="0 0 247 72" fill="none" xmlns="http://www.w3.org/2000/svg">
<path d="M31.2217 5.2165C31.4967 5.45604 31.8118 5.64513 32.1526 5.77508C32.5409 5.91193 32.9514 5.97507 33.3629 5.96128C34.1626 6.01051 34.9496 5.74297 35.5536 5.2165C36.0614 4.6918 36.3453 3.99021 36.3453 3.26001C36.3453 2.52981 36.0614 1.82822 35.5536 1.30352C35.0415 0.791486 34.2968 0.558742 33.3629 0.558742C32.9514 0.544946 32.5409 0.608093 32.1526 0.744936C31.8118 0.874886 31.4967 1.06398 31.2217 1.30352C30.9452 1.53485 30.7362 1.83633 30.6165 2.1763C30.4634 2.52888 30.3842 2.90909 30.3838 3.29347C30.3935 3.67777 30.4723 4.05719 30.6165 4.41354C30.7593 4.72092 30.9655 4.99457 31.2217 5.2165Z" fill="white"/>
<path d="M41.3283 24.1732H35.9258V8.38452H25.0713V12.5768H30.756V24.1732H25.0713V28.3189H41.3283V24.1732Z" fill="white"/>
<path d="M48.5027 26.7452C49.1045 27.4405 49.8749 27.9695 50.74 28.2813C51.65 28.6089 52.6124 28.7667 53.5794 28.7468C54.6769 28.7569 55.7562 28.4672 56.7011 27.9089C57.6718 27.3228 58.4997 26.5277 59.1245 25.5815L59.4154 28.3773H64.0703V8.38184H58.8918V22.4046C58.5764 23.0659 58.0696 23.6173 57.4371 23.9872C56.6771 24.3841 55.8269 24.5766 54.9701 24.5458C54.4479 24.551 53.9283 24.4725 53.4311 24.3131C53.0192 24.1799 52.6605 23.9191 52.407 23.5683C52.103 23.1766 51.91 22.7103 51.8484 22.2184C51.7063 21.5443 51.6438 20.8559 51.6622 20.1673V8.38184H46.536V20.2139C46.5173 21.5208 46.6898 22.8234 47.0481 24.0803C47.3412 25.058 47.8368 25.963 48.5027 26.7365" fill="white"/>
<path d="M70.6312 25.849C71.2817 26.7282 72.1258 27.4459 73.0982 27.9466C74.1075 28.4594 75.2277 28.7153 76.3595 28.6913C77.3756 28.7071 78.3811 28.4839 79.295 28.0397C80.1607 27.5983 80.9232 26.9786 81.5322 26.2214L81.8232 28.3189H86.4227V0H81.2529V10.1621C80.6725 9.49256 79.9579 8.95238 79.1553 8.57656C78.2912 8.19045 77.3524 7.99972 76.4061 8.01798C75.2584 7.9883 74.1215 8.24528 73.0982 8.76566C72.125 9.26382 71.2806 9.98082 70.6312 10.8603C69.9018 11.8088 69.3777 12.8987 69.0922 14.0606C68.7244 15.4109 68.5519 16.807 68.5801 18.2063V18.599C68.5782 19.9662 68.7503 21.328 69.0922 22.6517C69.3971 23.8065 69.9194 24.8926 70.6312 25.8519V25.849ZM73.6568 18.215C73.6598 17.417 73.7387 16.6212 73.8925 15.8381C74.011 15.1658 74.2474 14.5197 74.5907 13.9296C74.8969 13.3983 75.3283 12.9498 75.8475 12.6234C76.4103 12.2919 77.0569 12.1302 77.7094 12.1579C78.4781 12.1309 79.2383 12.3247 79.9001 12.7165C80.4912 13.1203 80.9722 13.6653 81.2995 14.302V22.4073C80.9769 23.0464 80.4949 23.5915 79.9001 23.9899C79.2383 24.3817 78.4781 24.5755 77.7094 24.5485C77.0567 24.5777 76.4097 24.4159 75.8475 24.083C75.3407 23.7623 74.9114 23.3331 74.5907 22.8262C74.2474 22.2518 74.0109 21.62 73.8925 20.9614C73.7364 20.1954 73.6575 19.4157 73.6568 18.6339V18.215Z" fill="white"/>
<path d="M95.4122 28.2724C96.3128 28.5777 97.257 28.7349 98.208 28.7379C98.803 28.7476 99.3969 28.685 99.9768 28.5517C100.484 28.4312 100.983 28.2757 101.469 28.0862C101.903 27.9096 102.31 27.6747 102.68 27.388C103.036 27.1337 103.364 26.841 103.657 26.5152C103.707 26.8622 103.785 27.2046 103.89 27.5393C103.962 27.8314 104.071 28.1131 104.216 28.3771H109.435V28.0513C109.143 27.4787 108.938 26.8659 108.827 26.233C108.682 25.3564 108.619 24.4681 108.641 23.5797V14.9974C108.657 13.9364 108.434 12.8855 107.989 11.9223C107.586 11.0598 106.979 10.3087 106.22 9.73447C105.408 9.13571 104.492 8.6937 103.517 8.43111C102.425 8.1256 101.297 7.96806 100.163 7.96272C98.9483 7.95394 97.7391 8.12752 96.5759 8.47766C95.6109 8.77074 94.7105 9.24464 93.9226 9.87412C93.2414 10.4166 92.6848 11.0992 92.2905 11.8757C91.9198 12.6296 91.7286 13.459 91.7319 14.2991H96.8668C96.8534 13.9645 96.9084 13.6306 97.0284 13.318C97.1485 13.0053 97.3311 12.7205 97.5651 12.4808C98.0305 12.0153 98.8219 11.8292 99.8459 11.8292C101.01 11.8292 101.944 12.1201 102.549 12.667C102.859 12.9582 103.103 13.313 103.264 13.7072C103.424 14.1013 103.498 14.5256 103.48 14.9508V16.1145H100.637C97.5185 16.1145 95.1882 16.6731 93.6055 17.8397C92.0229 19.0064 91.2286 20.6326 91.2286 22.7302C91.2233 23.544 91.3958 24.3491 91.734 25.0893C92.0721 25.8295 92.5679 26.4869 93.1866 27.0156C93.8422 27.5764 94.6012 28.0034 95.4209 28.2724H95.4122ZM96.6777 21.0981C96.8606 20.7136 97.133 20.3784 97.472 20.1206C97.8892 19.8123 98.3641 19.5907 98.8684 19.4689C99.5355 19.3101 100.219 19.232 100.905 19.2362H103.523V22.672C103.362 22.9508 103.158 23.2022 102.918 23.4168C102.635 23.6708 102.323 23.8896 101.987 24.0685C101.607 24.2796 101.198 24.4363 100.774 24.534C100.301 24.6685 99.8108 24.7313 99.3193 24.7202C98.3418 24.7202 97.597 24.4874 97.1316 24.022C96.8951 23.8018 96.7067 23.5352 96.5781 23.2388C96.4494 22.9424 96.3833 22.6227 96.3839 22.2997C96.3859 21.8782 96.4855 21.463 96.6748 21.0865" fill="white"/>
<path d="M118.425 27.9466C119.434 28.4601 120.554 28.716 121.686 28.6913C122.702 28.7065 123.708 28.4833 124.622 28.0397C125.487 27.599 126.249 26.9791 126.856 26.2214L127.147 28.319H131.758V0H126.577V10.1621C125.997 9.49127 125.283 8.95087 124.479 8.57656C123.616 8.19078 122.678 8.00006 121.733 8.01798C120.585 7.98769 119.448 8.2447 118.425 8.76567C117.451 9.2638 116.605 9.98077 115.955 10.8603C115.225 11.8084 114.702 12.8984 114.419 14.0606C114.051 15.4109 113.879 16.807 113.907 18.2063V18.599C113.905 19.9662 114.077 21.328 114.419 22.6517C114.751 23.7957 115.27 24.877 115.955 25.8519C116.618 26.7208 117.46 27.4364 118.425 27.9495V27.9466ZM119.03 18.215C119.034 17.4172 119.111 16.6215 119.263 15.8381C119.381 15.1658 119.618 14.5197 119.961 13.9296C120.269 13.3984 120.701 12.9501 121.221 12.6234C121.783 12.2916 122.43 12.1299 123.083 12.1579C123.851 12.1312 124.611 12.325 125.273 12.7165C125.864 13.1198 126.344 13.665 126.67 14.302V22.4073C126.348 23.0463 125.867 23.5914 125.273 23.9899C124.611 24.3814 123.851 24.5752 123.083 24.5485C122.43 24.578 121.783 24.4162 121.221 24.083C120.713 23.7621 120.283 23.3329 119.961 22.8262C119.618 22.2518 119.381 21.62 119.263 20.9614C119.109 20.1951 119.031 19.4155 119.03 18.6339V18.215Z" fill="white"/>
<path d="M154.014 23.5683V14.9975C154.028 13.9368 153.806 12.8862 153.362 11.9224C152.959 11.0591 152.351 10.3079 151.59 9.73465C150.779 9.13586 149.864 8.69383 148.89 8.4313C147.798 8.12619 146.67 7.96866 145.536 7.9629C144.325 7.95506 143.12 8.12863 141.961 8.47784C140.995 8.77091 140.093 9.24479 139.304 9.8743C138.624 10.4168 138.068 11.0995 137.675 11.8759C137.305 12.6298 137.113 13.4592 137.117 14.2993H142.24C142.226 13.9651 142.281 13.6316 142.401 13.3194C142.521 13.0072 142.704 12.7229 142.938 12.4839C143.404 12.0155 144.198 11.8293 145.222 11.8293C146.386 11.8293 147.317 12.1203 147.925 12.6672C148.235 12.9584 148.479 13.3132 148.64 13.7074C148.8 14.1015 148.874 14.5257 148.856 14.951V16.1147H146.013C142.892 16.1147 140.564 16.6762 138.979 17.8399C137.393 19.0036 136.605 20.6328 136.605 22.7304C136.6 23.5439 136.772 24.3487 137.109 25.0888C137.447 25.8288 137.942 26.4865 138.56 27.0158C139.215 27.5529 139.956 27.9776 140.75 28.2726C141.651 28.5781 142.595 28.7354 143.546 28.7381C144.141 28.7477 144.735 28.6852 145.315 28.5519C145.822 28.4314 146.319 28.2759 146.805 28.0864C147.238 27.9098 147.645 27.6749 148.015 27.3882C148.373 27.1347 148.702 26.8419 148.995 26.5154C149.046 26.8624 149.123 27.2048 149.228 27.5395C149.3 27.8316 149.41 28.1133 149.554 28.3773H154.761V28.0515C154.47 27.4792 154.266 26.8662 154.156 26.2332C154.053 25.3527 154.006 24.4664 154.017 23.5799L154.014 23.5683ZM148.847 22.649C148.686 22.9277 148.482 23.1791 148.242 23.3937C147.958 23.6477 147.644 23.8665 147.308 24.0454C146.928 24.256 146.521 24.4127 146.098 24.5109C145.625 24.6454 145.134 24.7082 144.643 24.6971C143.663 24.6971 142.918 24.4643 142.452 23.9989C142.217 23.7781 142.029 23.5113 141.901 23.215C141.773 22.9188 141.707 22.5993 141.707 22.2766C141.704 21.8396 141.804 21.408 141.998 21.0168C142.179 20.6316 142.45 20.296 142.79 20.0393C143.208 19.7305 143.684 19.5088 144.189 19.3877C144.856 19.2288 145.54 19.1507 146.226 19.1549H148.844L148.847 22.649Z" fill="white"/>
<path d="M164.915 14.1597C165.277 13.5534 165.79 13.052 166.405 12.7051C167.088 12.3296 167.863 12.1523 168.642 12.193C169.176 12.1775 169.709 12.2403 170.225 12.3792C170.667 12.4949 171.08 12.7009 171.438 12.9844C171.799 13.3076 172.058 13.7292 172.183 14.1975C172.391 14.8278 172.489 15.489 172.473 16.1526V28.357H177.597V16.0682C177.62 14.8222 177.447 13.5803 177.085 12.388C176.822 11.4535 176.32 10.6033 175.63 9.92088C175.028 9.27839 174.275 8.79723 173.439 8.52152C172.554 8.22002 171.626 8.06285 170.69 8.05603C169.503 8.04026 168.332 8.32978 167.289 8.89681C166.241 9.44925 165.342 10.2479 164.671 11.2242L164.438 8.38187H159.783V28.3657H164.915V14.1597Z" fill="white"/>
<path d="M194.68 8.38452H183.549V12.5768H189.51V24.1732H183.549V28.3189H200.412V24.1732H194.68V8.38452Z" fill="white"/>
<path d="M199.105 0.744873H193.469L190.022 5.91467H193.982L199.105 0.744873Z" fill="white"/>
<path d="M222.024 23.5681V14.9974C222.039 13.9366 221.816 12.886 221.373 11.9223C220.97 11.0598 220.363 10.3087 219.604 9.73447C218.791 9.13641 217.875 8.69446 216.901 8.43111C215.809 8.1256 214.681 7.96806 213.547 7.96272C212.332 7.95394 211.123 8.12752 209.96 8.47766C208.994 8.77138 208.093 9.2452 207.303 9.87412C206.624 10.4177 206.069 11.1001 205.674 11.8757C205.304 12.6296 205.112 13.459 205.116 14.2991H210.239C210.225 13.9646 210.28 13.6308 210.401 13.3185C210.521 13.0062 210.705 12.7221 210.94 12.4837C211.406 12.0153 212.197 11.8292 213.221 11.8292C214.385 11.8292 215.319 12.1201 215.924 12.667C216.234 12.9582 216.478 13.313 216.639 13.7072C216.799 14.1013 216.873 14.5256 216.855 14.9508V16.1145H214.012C210.894 16.1145 208.563 16.676 206.981 17.8397C205.398 19.0034 204.604 20.6326 204.604 22.7302C204.598 23.544 204.771 24.3491 205.109 25.0893C205.447 25.8295 205.943 26.4869 206.562 27.0156C207.217 27.5521 207.956 27.9767 208.749 28.2724C209.649 28.5777 210.592 28.7349 211.542 28.7379C212.138 28.7477 212.733 28.6852 213.314 28.5517C213.821 28.4312 214.318 28.2757 214.804 28.0862C215.238 27.9103 215.646 27.6754 216.017 27.388C216.374 27.1337 216.701 26.841 216.994 26.5152C217.045 26.8622 217.122 27.2046 217.227 27.5393C217.299 27.8314 217.409 28.1131 217.553 28.3771H222.772V28.0513C222.479 27.4792 222.274 26.8662 222.164 26.233C222.061 25.3525 222.014 24.4662 222.024 23.5797V23.5681ZM216.901 22.6488C216.74 22.9275 216.536 23.1789 216.296 23.3935C215.684 23.9358 214.947 24.3194 214.152 24.5107C213.679 24.6452 213.189 24.708 212.697 24.6969C211.72 24.6969 210.975 24.4642 210.507 23.9987C210.271 23.7779 210.083 23.5111 209.955 23.2149C209.827 22.9186 209.761 22.5992 209.762 22.2764C209.758 21.8394 209.858 21.4078 210.053 21.0167C210.234 20.6311 210.507 20.2955 210.847 20.0391C211.264 19.7308 211.739 19.5092 212.243 19.3875C212.91 19.2286 213.594 19.1505 214.28 19.1547H216.898L216.901 22.6488Z" fill="white"/>
<path d="M244.757 28.3188H227.941V32.3249H244.757V28.3188Z" fill="white"/>
<path d="M2.0127 42.1527H7.09231V60.6907H2.0127V64.8364H17.525V60.6907H12.3086V42.1527H17.525V37.9604H2.0127V42.1527Z" fill="white"/>
<path d="M40.3512 46.3912C39.7518 45.7482 38.9991 45.2677 38.1634 44.9948C37.2779 44.6925 36.3497 44.5344 35.4141 44.5264C34.2273 44.5089 33.0561 44.7975 32.0132 45.3643C30.9651 45.917 30.0666 46.7156 29.3948 47.6917L29.0806 44.9482H24.4258V64.9292H29.5985V50.7232C29.9579 50.1153 30.4718 49.6134 31.088 49.2685C31.7703 48.8921 32.5442 48.7138 33.3224 48.7536C33.8571 48.7394 34.3911 48.8021 34.9079 48.9398C35.3487 49.0576 35.7606 49.2645 36.1182 49.5478C36.4807 49.8687 36.7399 50.2898 36.863 50.7581C37.0711 51.3883 37.1695 52.0496 37.1539 52.7131V64.9175H42.28V52.6375C42.3031 51.3915 42.1304 50.1496 41.768 48.9572C41.5245 47.9996 41.0432 47.119 40.3686 46.3971" fill="white"/>
<path d="M85.6314 47.229C84.8363 46.3682 83.8675 45.6859 82.789 45.2275C81.5587 44.7426 80.2448 44.5053 78.9226 44.5292C77.5935 44.5095 76.2745 44.763 75.0474 45.274C73.889 45.7739 72.8431 46.5022 71.9723 47.4152C71.1039 48.3652 70.4245 49.4721 69.9707 50.6765C69.4904 52.0213 69.254 53.441 69.2725 54.8688V55.6136C69.2533 56.9122 69.506 58.2005 70.0144 59.3957C70.4832 60.5602 71.1988 61.6093 72.1119 62.4708C73.0311 63.3576 74.1195 64.0502 75.3122 64.5073C76.6479 65.0257 78.0719 65.2787 79.5044 65.252C80.4313 65.267 81.356 65.1574 82.2537 64.9262C83.0637 64.7529 83.8466 64.4711 84.5811 64.0883C85.2335 63.778 85.8444 63.3871 86.3994 62.9246C86.8781 62.5331 87.3009 62.0779 87.6563 61.5718L85.0932 58.8254C84.7997 59.198 84.4549 59.5271 84.0691 59.803C83.6767 60.0805 83.2553 60.3146 82.8123 60.5012C82.3431 60.6906 81.8557 60.831 81.3577 60.9201C80.8665 61.0127 80.3679 61.0595 79.8681 61.0598C79.2019 61.0729 78.539 60.9624 77.9131 60.7339C77.3304 60.5268 76.7923 60.2109 76.3275 59.803C75.3512 58.9554 74.7215 57.7777 74.5587 56.4951H88.1392V54.3073C88.1622 52.9509 87.9597 51.6 87.5399 50.31C87.0822 49.1844 86.4369 48.1446 85.6314 47.2349V47.229ZM82.9752 53.0127H74.5383C74.6611 52.404 74.8483 51.81 75.0969 51.2409C75.5364 50.2581 76.3136 49.4654 77.2876 49.0066C77.7902 48.8004 78.327 48.6899 78.8702 48.6808C79.4612 48.6631 80.0489 48.7743 80.5925 49.0066C81.0771 49.1738 81.5107 49.4622 81.8522 49.8445C82.195 50.2081 82.4638 50.635 82.6436 51.1013C82.8279 51.5943 82.9377 52.112 82.9694 52.6374L82.9752 53.0127Z" fill="white"/>
<path d="M103.703 36.5173H92.5229V40.7096H98.5335V60.6906H92.5229V64.8363H109.435V60.6906H103.703V36.5173Z" fill="white"/>
<path d="M125.552 44.9019H114.698V49.0941H120.38V60.6905H114.698V64.8363H130.955V60.6905H125.552V44.9019Z" fill="white"/>
<path d="M122.943 37.0293C122.531 37.0155 122.121 37.0786 121.733 37.2155C121.392 37.3454 121.077 37.5345 120.802 37.7741C120.524 38.0052 120.314 38.3067 120.194 38.6469C120.04 39.0004 119.961 39.3816 119.961 39.7669C119.971 40.1502 120.05 40.5287 120.194 40.8841C120.337 41.212 120.544 41.5085 120.802 41.7569C121.077 41.9964 121.392 42.1855 121.733 42.3155C122.121 42.4523 122.531 42.5154 122.943 42.5017C123.743 42.5503 124.529 42.2828 125.134 41.7569C125.641 41.2322 125.925 40.5306 125.925 39.8004C125.925 39.0702 125.641 38.3686 125.134 37.8439C124.847 37.5598 124.504 37.3387 124.126 37.1944C123.749 37.0502 123.346 36.986 122.943 37.006" fill="white"/>
<path d="M175.909 47.229C175.114 46.3682 174.145 45.6859 173.067 45.2275C171.837 44.7426 170.523 44.5053 169.201 44.5292C167.874 44.5107 166.559 44.7642 165.334 45.274C164.176 45.7747 163.13 46.5028 162.259 47.4152C161.391 48.3652 160.711 49.4721 160.257 50.6765C159.777 52.0213 159.541 53.441 159.559 54.8688V55.6136C159.539 56.9126 159.793 58.2012 160.304 59.3957C160.771 60.5607 161.485 61.61 162.399 62.4708C163.318 63.3576 164.406 64.0502 165.599 64.5073C166.935 65.0254 168.359 65.2784 169.791 65.252C170.718 65.267 171.643 65.1574 172.54 64.9262C173.35 64.7529 174.133 64.4711 174.868 64.0883C175.52 63.778 176.131 63.3871 176.686 62.9246C177.165 62.5331 177.588 62.0779 177.943 61.5718L175.383 58.8254C175.087 59.1974 174.742 59.5264 174.356 59.803C173.963 60.0805 173.542 60.3146 173.099 60.5012C172.63 60.6906 172.142 60.831 171.644 60.9201C171.162 61.0161 170.672 61.0677 170.181 61.0743C169.515 61.0875 168.852 60.977 168.226 60.7485C167.644 60.5406 167.106 60.2248 166.64 59.8175C165.664 58.9699 165.034 57.7923 164.872 56.5097H178.426V54.3219C178.448 52.9622 178.243 51.6083 177.821 50.3158C177.328 49.2084 176.686 48.1738 175.912 47.2407L175.909 47.229ZM173.256 53.0185H164.819C164.942 52.4098 165.129 51.8158 165.378 51.2468C165.606 50.7453 165.921 50.2882 166.309 49.8969C166.678 49.5402 167.102 49.2455 167.566 49.0241C168.069 48.8181 168.607 48.7076 169.151 48.6982C169.743 48.6801 170.332 48.7913 170.876 49.0241C171.36 49.192 171.792 49.4804 172.133 49.8619C172.476 50.2256 172.745 50.6525 172.924 51.1188C173.109 51.6117 173.219 52.1295 173.25 52.6549L173.256 53.0185Z" fill="white"/>
<path d="M199.564 46.3913C198.963 45.7492 198.21 45.269 197.374 44.9949C196.488 44.6924 195.56 44.5343 194.625 44.5265C193.438 44.5107 192.266 44.8002 191.224 45.3673C190.175 45.9197 189.277 46.7184 188.605 47.6947L188.279 44.9483H183.625V64.9293H188.8V50.7233C189.16 50.1161 189.674 49.6144 190.29 49.2686C190.973 48.8919 191.748 48.7135 192.527 48.7537C193.061 48.7396 193.594 48.8023 194.11 48.9399C194.551 49.0577 194.964 49.2646 195.323 49.5479C195.684 49.8696 195.943 50.2904 196.067 50.7582C196.276 51.3884 196.374 52.0497 196.358 52.7132V64.9176H201.482V52.6376C201.505 51.3916 201.332 50.1497 200.97 48.9573C200.728 47.9995 200.248 47.1186 199.573 46.3972" fill="white"/>
<path d="M246.014 54.3568C246.036 52.9971 245.831 51.6433 245.409 50.3507C245.035 49.2017 244.434 48.1399 243.64 47.2291C242.845 46.3682 241.876 45.6859 240.797 45.2275C239.567 44.7424 238.253 44.5051 236.931 44.5293C235.605 44.5107 234.289 44.7642 233.065 45.274C231.907 45.774 230.862 46.5023 229.992 47.4153C229.122 48.3644 228.442 49.4714 227.988 50.6766C227.508 52.0213 227.271 53.441 227.29 54.8689V55.6136C227.27 56.9126 227.524 58.2012 228.034 59.3957C228.501 60.5607 229.216 61.61 230.129 62.4708C231.049 63.357 232.137 64.0495 233.329 64.5073C234.665 65.0254 236.089 65.2784 237.522 65.2521C238.448 65.267 239.373 65.1574 240.271 64.9262C241.081 64.7522 241.863 64.4704 242.598 64.0884C243.249 63.7774 243.859 63.3864 244.414 62.9246C244.892 62.5331 245.315 62.0779 245.67 61.5718L243.11 58.8255C242.816 59.1973 242.471 59.5263 242.086 59.803C241.692 60.0799 241.27 60.314 240.827 60.5012C240.357 60.6904 239.87 60.8308 239.372 60.9202C238.88 61.0128 238.38 61.0595 237.879 61.0598C237.213 61.073 236.55 60.9625 235.924 60.734C235.342 60.5255 234.805 60.2097 234.339 59.803C233.363 58.9554 232.733 57.7778 232.57 56.4951H246.127V54.3539L246.014 54.3568ZM240.984 53.0069H232.547C232.669 52.3982 232.857 51.8042 233.105 51.2352C233.333 50.7329 233.65 50.2756 234.039 49.8852C234.407 49.5273 234.832 49.2324 235.296 49.0125C235.799 48.8063 236.335 48.6958 236.879 48.6866C237.471 48.6685 238.059 48.7797 238.604 49.0125C239.088 49.1796 239.52 49.4681 239.861 49.8503C240.203 50.214 240.472 50.6408 240.652 51.1072C240.836 51.6001 240.946 52.1179 240.978 52.6433L240.984 53.0069Z" fill="white"/>
<path d="M148.844 46.7639C148.274 46.0414 147.539 45.4666 146.7 45.0882C145.746 44.6728 144.715 44.4665 143.674 44.483C142.512 44.4533 141.361 44.709 140.32 45.2278C139.318 45.7222 138.441 46.4386 137.757 47.3225C137.014 48.2804 136.461 49.3716 136.128 50.5372C135.741 51.8818 135.55 53.2751 135.56 54.6742V55.0466C135.556 56.4215 135.752 57.7897 136.142 59.108C136.487 60.2648 137.039 61.3492 137.772 62.3082C138.451 63.1795 139.309 63.8948 140.288 64.4058C141.328 64.9242 142.478 65.1799 143.64 65.1506C144.601 65.1734 145.556 64.9826 146.435 64.592C147.227 64.22 147.939 63.6984 148.533 63.0559V66.643C148.54 66.7235 148.524 66.8042 148.486 66.8758C148.492 67.0039 148.471 67.1319 148.423 67.2509C148.375 67.37 148.302 67.4773 148.209 67.5656C148.116 67.654 148.005 67.7212 147.884 67.7628C147.763 67.8044 147.634 67.8194 147.506 67.8067H138.129V71.999H150.753C151.141 72.0098 151.527 71.941 151.888 71.7969C152.249 71.6528 152.576 71.4365 152.85 71.1611C153.409 70.5997 153.642 70.2884 153.642 69.3894V44.902H148.987L148.844 46.7639ZM148.553 59.108C148.24 59.7201 147.753 60.2261 147.154 60.5626C146.465 60.9219 145.696 61.0982 144.92 61.0747C144.266 61.1041 143.618 60.9423 143.055 60.6092C142.534 60.29 142.089 59.8611 141.751 59.3524C141.393 58.7818 141.14 58.151 141.007 57.4904C140.831 56.7277 140.752 55.9455 140.774 55.163V54.7906C140.773 53.9894 140.871 53.1912 141.065 52.4137C141.214 51.7359 141.482 51.0898 141.856 50.5052C142.192 49.9826 142.637 49.5382 143.16 49.2019C143.725 48.8743 144.371 48.712 145.024 48.7335C145.786 48.7161 146.539 48.8933 147.212 49.2484C147.812 49.585 148.298 50.091 148.612 50.7031V59.14L148.553 59.108Z" fill="white"/>
<path d="M215.504 40.0112H210.378V44.9017H205.813V48.6838H210.378V62.2847C210.378 63.1255 210.669 63.4979 211.172 64.0564C211.446 64.3317 211.773 64.548 212.133 64.6921C212.493 64.8362 212.879 64.905 213.267 64.8943H222.868V60.6904H216.488C215.883 60.6904 215.557 60.3646 215.51 59.7594V48.6722H222.964V44.8901H215.51L215.504 40.0112Z" fill="white"/>
<path d="M56.6083 40.0112H51.4822V44.9017H46.9204V48.6838H51.4822V62.2847C51.4822 63.1255 51.7731 63.4979 52.2735 64.0564C52.5474 64.3319 52.8748 64.5483 53.2356 64.6924C53.5963 64.8365 53.9828 64.9052 54.3711 64.8943H63.9717V60.6904H57.5917C57.464 60.7031 57.3351 60.6881 57.2137 60.6465C57.0924 60.6049 56.9814 60.5376 56.8884 60.4493C56.7953 60.361 56.7224 60.2536 56.6746 60.1346C56.6268 60.0155 56.6052 59.8876 56.6112 59.7594V48.6722H64.0648V44.8901H56.6083V40.0112Z" fill="white"/>
<path d="M14.4992 11.6431H19.5293V10.9449C19.537 10.6648 19.5215 10.3845 19.4828 10.107C19.4327 9.0171 19.2289 7.93973 18.8776 6.90678C18.507 5.74186 17.8731 4.67795 17.025 3.79756C16.1769 2.91716 15.1374 2.24393 13.9871 1.83009C12.6585 1.34584 11.2524 1.10919 9.83851 1.13186C8.9922 1.13135 8.1487 1.22898 7.32489 1.42279C6.8303 1.56452 6.34457 1.7355 5.87025 1.93482C4.65814 2.51311 3.59209 3.3574 2.7515 4.4048C1.8381 5.53245 1.15685 6.82969 0.747001 8.22178C0.2251 9.8174 -0.0266211 11.489 0.00222587 13.1676V16.7518C-0.00583849 18.4051 0.213447 20.0516 0.653911 21.6452C1.04032 23.0171 1.68838 24.3014 2.5624 25.4273C3.4082 26.4706 4.47418 27.3141 5.68405 27.8973C5.91679 27.9903 6.14955 28.0834 6.42884 28.1882C7.52905 28.5343 8.67643 28.707 9.82978 28.7002C11.244 28.727 12.6509 28.4902 13.9784 28.002C15.1279 27.5868 16.1667 26.9131 17.0146 26.0329C17.8625 25.1527 18.4969 24.0895 18.8689 22.9253C19.2018 21.9432 19.4072 20.9224 19.4799 19.888C19.5186 19.5325 19.5342 19.1749 19.5264 18.8174V18.1657H14.4992V19.9345C14.4061 21.5637 13.9377 22.7304 13.1464 23.4257C12.355 24.121 11.2844 24.4963 9.93161 24.4963C8.30241 24.4963 7.1387 23.8446 6.39101 22.5878C5.64333 21.331 5.27385 19.3731 5.27385 16.7169V13.0425C5.26803 11.9332 5.36542 10.8258 5.56478 9.7346C5.71162 8.87039 5.98924 8.03359 6.3881 7.25299C6.73479 6.61339 7.25123 6.08186 7.88057 5.71689C8.52497 5.37367 9.24518 5.19762 9.97524 5.20485C10.643 5.18373 11.3083 5.29446 11.9332 5.53069C12.46 5.70949 12.9381 6.00828 13.3296 6.40348C13.7019 6.85195 13.9719 7.37614 14.121 7.93958C14.3311 8.62087 14.4571 9.32529 14.4963 10.0372V11.6198L14.4992 11.6431Z" fill="white"/>
</svg>
