<?xml version="1.0" encoding="UTF-8" standalone="no"?>
<svg width="160px" height="120px" viewBox="0 0 160 120" version="1.1" xmlns="http://www.w3.org/2000/svg" xmlns:xlink="http://www.w3.org/1999/xlink">
    <!-- Generator: Sketch 3.8.3 (29802) - http://www.bohemiancoding.com/sketch -->
    <title>Artboard 3</title>
    <desc>Created with Sketch.</desc>
    <defs>
        <rect id="path-1" x="0" y="0" width="94" height="63" rx="5"></rect>
        <mask id="mask-2" maskContentUnits="userSpaceOnUse" maskUnits="objectBoundingBox" x="0" y="0" width="94" height="63" fill="white">
            <use xlink:href="#path-1"></use>
        </mask>
    </defs>
    <g id="Page-1" stroke="none" stroke-width="1" fill="none" fill-rule="evenodd">
        <g id="Artboard-3">
            <g id="Group-28-Copy-3" transform="translate(33.000000, 29.000000)">
                <circle id="Oval-61" fill="#F9524E" cx="50.5" cy="34.5" r="22.5"></circle>
                <g id="Group-27">
                    <path d="M54,25.6666667 C54,26.7419444 54.896,27.6111111 56,27.6111111 C57.104,27.6111111 58,26.7419444 58,25.6666667 C58,21.9022222 54.564,18.7658333 50,18.0463889 L50,15.9444444 C50,14.8691667 49.104,14 48,14 C46.896,14 46,14.8691667 46,15.9444444 L46,18.0463889 C41.436,18.7658333 38,21.9022222 38,25.6666667 C38,29.4311111 41.436,32.5675 46,33.2869444 L46,40.985 C43.674,40.4483333 42,39.0230556 42,37.3333333 C42,36.2580556 41.104,35.3888889 40,35.3888889 C38.896,35.3888889 38,36.2580556 38,37.3333333 C38,41.0977778 41.436,44.2341667 46,44.9536111 L46,47.0555556 C46,48.1308333 46.896,49 48,49 C49.104,49 50,48.1308333 50,47.0555556 L50,44.9536111 C54.564,44.2341667 58,41.0977778 58,37.3333333 C58,33.5688889 54.564,30.4325 50,29.7130556 L50,22.015 C52.326,22.5497222 54,23.9769444 54,25.6666667 L54,25.6666667 Z M46,29.3183333 C43.674,28.7816667 42,27.3563889 42,25.6666667 C42,23.9769444 43.674,22.5497222 46,22.015 L46,29.3183333 L46,29.3183333 Z M54,37.3333333 C54,39.0230556 52.326,40.4483333 50,40.985 L50,33.6816667 C52.326,34.2163889 54,35.6436111 54,37.3333333 L54,37.3333333 Z" id="Shape" fill="#505050"></path>
                    <use id="Rectangle-51" stroke="#505050" mask="url(#mask-2)" stroke-width="8" xlink:href="#path-1"></use>
                    <circle id="Oval-61" stroke="#505050" stroke-width="4" stroke-linecap="round" stroke-linejoin="round" cx="47.5" cy="31.5" r="22.5"></circle>
                    <circle id="Oval-61" fill="#505050" cx="12.5" cy="31.5" r="4.5"></circle>
                    <circle id="Oval-61" fill="#505050" cx="81.5" cy="31.5" r="4.5"></circle>
                </g>
            </g>
        </g>
    </g>
</svg>