<?xml version="1.0" encoding="UTF-8" standalone="no"?>
<svg width="160px" height="120px" viewBox="0 0 160 120" version="1.1" xmlns="http://www.w3.org/2000/svg" xmlns:xlink="http://www.w3.org/1999/xlink">
    <!-- Generator: Sketch 3.8.3 (29802) - http://www.bohemiancoding.com/sketch -->
    <title>Artboard 3</title>
    <desc>Created with Sketch.</desc>
    <defs></defs>
    <g id="Page-1" stroke="none" stroke-width="1" fill="none" fill-rule="evenodd">
        <g id="Artboard-3">
            <g id="Payment-method-Copy" transform="translate(35.000000, 28.000000)">
                <g id="color_30_" transform="translate(8.000000, 6.000000)" fill="#F9524E">
                    <path d="M41.614,50.85 C41.614,50.85 36.728,45.464 36.728,39.6 C36.728,32.416 41.422,28.648 42.58,27 C43.672,25.446 49.638,21.584 49.638,14.4 C49.638,8.988 46.124,3.714 44.048,1.132 C43.582,0.33 42.364,0 42.364,0 L1.818,0 C0.814,0 0,0.806 0,1.8 L0,52.2 C0,53.194 0.814,54 1.818,54 L40.362,54 C41.366,54 42.18,53.194 42.18,52.2 C42.182,51.198 41.614,50.85 41.614,50.85 L41.614,50.85 Z M78.182,0 C78.182,0 51.496,0.032 51.302,0.032 C50.374,0.112 49.638,0.86 49.638,1.802 C49.638,2.306 49.848,2.758 50.186,3.086 C50.186,3.086 52.232,5.298 53.376,7.94 C54.674,10.934 55.092,14.402 55.092,14.402 C55.092,21.586 48.456,25.544 47.296,27.002 C46.082,28.528 42.182,32.418 42.182,39.602 C42.182,46.072 47.932,53.216 47.932,53.216 C47.932,53.216 48.358,54 49.454,54 L78.182,54 C79.186,54 80,53.194 80,52.2 L80,1.8 C80,0.806 79.186,0 78.182,0 L78.182,0 Z" id="Shape"></path>
                </g>
                <g id="outline_29_" fill="#505050">
                    <path d="M24,24 C24,25.106 24.896,26 26,26 C27.104,26 28,25.106 28,24 C28,20.128 24.564,16.902 20,16.162 L20,14 C20,12.894 19.104,12 18,12 C16.896,12 16,12.894 16,14 L16,16.162 C11.436,16.902 8,20.128 8,24 C8,27.872 11.436,31.098 16,31.838 L16,39.756 C13.674,39.204 12,37.738 12,36 C12,34.894 11.104,34 10,34 C8.896,34 8,34.894 8,36 C8,39.872 11.436,43.098 16,43.838 L16,46 C16,47.106 16.896,48 18,48 C19.104,48 20,47.106 20,46 L20,43.838 C24.564,43.098 28,39.872 28,36 C28,32.128 24.564,28.902 20,28.162 L20,20.244 C22.326,20.794 24,22.262 24,24 L24,24 Z M16,27.756 C13.674,27.204 12,25.738 12,24 C12,22.262 13.674,20.794 16,20.244 L16,27.756 L16,27.756 Z M24,36 C24,37.738 22.326,39.204 20,39.756 L20,32.244 C22.326,32.794 24,34.262 24,36 L24,36 Z M86,0 C86,0 50.044,0.034 49.832,0.034 C48.81,0.126 48,0.956 48,2 C48,2.56 48.232,3.062 48.602,3.426 C49.018,3.946 54,10.312 54,16 C54,23.982 48.9,28.38 47.624,30 C46.29,31.696 42,36.018 42,44 C42,51.19 48.324,59.126 48.324,59.126 C48.324,59.126 48.792,60 50,60 L86,60 C87.104,60 88,59.106 88,58 L88,2 C88,0.894 87.104,0 86,0 L86,0 Z M84,56 L51.044,56 C49.362,53.612 46,49.952 46,44 C46,36.018 51.164,31.83 52.438,30 C52.77,29.524 53.348,28.832 54,27.944 L54,28 L84,28 L84,56 L84,56 Z M84,24 L56.31,24 C57.256,21.89 58,19.272 58,16 L84,16 L84,24 L84,24 Z M84,12 L57.528,12 C56.7,8.47 54.942,5.732 53.616,4 L84,4 L84,12 L84,12 Z M66,48 C67.104,48 68,47.106 68,46 L68,42 C68,40.894 67.104,40 66,40 C64.896,40 64,40.894 64,42 L64,46 C64,47.106 64.896,48 66,48 L66,48 Z M74,48 C75.104,48 76,47.106 76,46 L76,42 C76,40.894 75.104,40 74,40 C72.896,40 72,40.894 72,42 L72,46 C72,47.106 72.896,48 74,48 L74,48 Z M41.376,56.5 C41.376,56.5 36,50.514 36,44 C36,36.018 41.164,31.83 42.438,30 C43.64,28.272 48,23.982 48,16 C48,9.988 44.136,4.126 41.85,1.258 C41.34,0.368 40,0 40,0 L2,0 C0.896,0 0,0.894 0,2 L0,58 C0,59.106 0.896,60 2,60 L40,60 C41.104,60 42,59.106 42,58 C42,56.886 41.376,56.5 41.376,56.5 L41.376,56.5 Z M4,56 L4,4 L38.898,4 C40.564,6.416 44,9.988 44,16 C44,23.982 38.9,28.38 37.624,30 C36.29,31.696 32,36.018 32,44 C32,49.488 34.564,53.658 36.356,56 L4,56 L4,56 Z" id="Shape"></path>
                </g>
            </g>
        </g>
    </g>
</svg>