<?xml version="1.0" encoding="UTF-8" standalone="no"?>
<svg width="160px" height="120px" viewBox="0 0 160 120" version="1.1" xmlns="http://www.w3.org/2000/svg" xmlns:xlink="http://www.w3.org/1999/xlink">
    <!-- Generator: Sketch 39.1 (31720) - http://www.bohemiancoding.com/sketch -->
    <title>Artboard 3</title>
    <desc>Created with Sketch.</desc>
    <defs></defs>
    <g id="Page-1" stroke="none" stroke-width="1" fill="none" fill-rule="evenodd">
        <g id="Artboard-3">
            <g id="Group-41-Copy" transform="translate(3.000000, 19.000000)">
                <g id="Home-delivery-1-Copy">
                    <g id="color_26_" transform="translate(8.000000, 9.000000)" fill="#CCFF00">
                        <path d="M1,26.41 C0.964,26.742 0.998,26.852 1,26.41 L1,26.41 L1,26.41 Z M1,26.41 C1.002,26.406 1.002,26.402 1.002,26.398 L1.002,26.358 C1.002,26.382 1,26.386 1,26.41 L1,26.41 Z M52.962,26.096 C52.914,25.638 52.704,25.238 52.406,24.93 L52.416,24.92 L52.358,24.862 C52.354,24.86 52.352,24.856 52.35,24.854 L28.416,1.568 C28.416,1.568 28.244,1.336 27.72,1.138 C27.302,0.954 26.822,0.948 26.376,1.12 C25.778,1.316 25.586,1.568 25.586,1.568 L1.636,24.868 C1.192,25.278 1.044,25.986 1,26.396 L1,71.132 C1,72.162 1.832,72.998 2.858,72.998 L51.144,72.998 C52.17,72.998 53.002,72.162 53.002,71.132 C53.002,71.132 52.962,26.67 52.962,26.096 L52.962,26.096 Z" id="Shape"></path>
                    </g>
                    <g id="outline_25_" fill="#505050">
                        <path d="M4.002,48.998 L31.298,48.998 L24.552,55.722 C23.802,56.468 23.802,57.678 24.552,58.424 C25.3,59.17 26.516,59.17 27.266,58.424 L37.41,48.318 C38.16,47.572 38.16,46.362 37.41,45.616 L27.266,35.51 C26.516,34.764 25.3,34.764 24.552,35.51 C23.802,36.256 23.802,37.466 24.552,38.212 L31.358,44.998 L4.002,44.998 C2.896,44.998 2.002,45.892 2.002,46.998 C2.002,48.104 2.896,48.998 4.002,48.998 L4.002,48.998 Z M70.408,38.586 L32.32,0.59 C31.536,-0.194 30.264,-0.194 29.478,0.59 L9.596,20.422 C8.81,21.204 8.81,22.472 9.596,23.254 C10.382,24.038 11.65,24.038 12.436,23.254 L30.9,4.84 L67.568,41.42 C68.354,42.202 69.622,42.202 70.408,41.42 C71.194,40.636 71.194,39.37 70.408,38.586 L70.408,38.586 Z M57.002,41.998 L57.002,77.998 L1.99723815,77.998 C0.895298547,77.998 0.002,78.8857296 0.002,79.998 L0.002,79.998 C0.002,81.1025695 0.905139589,81.998 1.99884302,81.998 L59.002,81.998 C60.108,81.998 61.002,81.104 61.002,79.998 L61.002,41.998 C61.002,40.892 60.108,39.998 59.002,39.998 C57.896,39.998 57.002,40.892 57.002,41.998 Z" id="Shape"></path>
                    </g>
                </g>
                <g id="Group-24-Copy" transform="translate(73.000000, 0.000000)" fill="#505050">
                    <path d="M42.376944,0.853338402 C41.599164,0.0905538659 40.353961,0.0905538659 39.576181,0.853338402 L1.38477471,38.3084165 C0.596160906,39.0818259 0.583835281,40.3480959 1.35724465,41.1367097 C2.13065402,41.9253235 3.39692399,41.9376491 4.18553779,41.1642397 L42.376944,3.7091616 L39.576181,3.7091616 L77.7675872,41.1642397 C78.556201,41.9376491 79.822471,41.9253235 80.5958803,41.1367097 C81.3692897,40.3480959 81.3569641,39.0818259 80.5683503,38.3084165 L42.376944,0.853338402 Z" id="Path-462"></path>
                    <path d="M67.4296875,80.78125 L69.4296875,78.78125 L13.28125,78.78125 L15.28125,80.78125 L15.28125,43.609375 C15.28125,42.5048055 14.3858195,41.609375 13.28125,41.609375 C12.1766805,41.609375 11.28125,42.5048055 11.28125,43.609375 L11.28125,80.78125 C11.28125,81.8858195 12.1766805,82.78125 13.28125,82.78125 L69.4296875,82.78125 C70.534257,82.78125 71.4296875,81.8858195 71.4296875,80.78125 L71.4296875,43.609375 C71.4296875,42.5048055 70.534257,41.609375 69.4296875,41.609375 C68.325118,41.609375 67.4296875,42.5048055 67.4296875,43.609375 L67.4296875,80.78125 Z" id="Path-463"></path>
                </g>
            </g>
        </g>
    </g>
</svg>