<?xml version="1.0" encoding="UTF-8" standalone="no"?>
<svg width="160px" height="120px" viewBox="0 0 160 120" version="1.1" xmlns="http://www.w3.org/2000/svg" xmlns:xlink="http://www.w3.org/1999/xlink">
    <!-- Generator: Sketch 3.8.3 (29802) - http://www.bohemiancoding.com/sketch -->
    <title>Artboard 3</title>
    <desc>Created with Sketch.</desc>
    <defs>
        <rect id="path-1" x="0" y="18" width="94" height="63" rx="5"></rect>
        <mask id="mask-2" maskContentUnits="userSpaceOnUse" maskUnits="objectBoundingBox" x="0" y="0" width="94" height="63" fill="white">
            <use xlink:href="#path-1"></use>
        </mask>
    </defs>
    <g id="Page-1" stroke="none" stroke-width="1" fill="none" fill-rule="evenodd">
        <g id="Artboard-3">
            <g id="Group-8-Copy" transform="translate(31.000000, 17.000000)">
                <g id="Group-7">
                    <path d="M31.9375,18.5078125 L50.4589844,0.138671875" id="Path-415" stroke="#505050" stroke-width="3" stroke-linecap="round" stroke-linejoin="round"></path>
                    <path d="M5,27.9961638 C5,25.2368587 7.23089406,23 10.0040358,23 L93.9959642,23 C96.7596169,23 99,25.2422034 99,27.9961638 L99,81.0038362 C99,83.7631413 96.7691059,86 93.9959642,86 L10.0040358,86 C7.24038314,86 5,83.7577966 5,81.0038362 L5,27.9961638 Z M36,75 C47.045695,75 56,66.045695 56,55 C56,43.954305 47.045695,35 36,35 C24.954305,35 16,43.954305 16,55 C16,66.045695 24.954305,75 36,75 Z" id="Combined-Shape" fill="#CCFF00"></path>
                    <use id="Rectangle-51" stroke="#505050" mask="url(#mask-2)" stroke-width="6" xlink:href="#path-1"></use>
                    <circle id="Oval-48" stroke="#505050" stroke-width="3" cx="31" cy="50" r="20"></circle>
                    <path d="M62.5,44.5 L81.735384,44.5" id="Line" stroke="#505050" stroke-width="4" stroke-linecap="round" stroke-linejoin="round"></path>
                    <path d="M62.5,54.5 L81.735384,54.5" id="Line-Copy-3" stroke="#505050" stroke-width="4" stroke-linecap="round" stroke-linejoin="round"></path>
                    <path d="M62.5,64.5 L81.735384,64.5" id="Line" stroke="#505050" stroke-width="4" stroke-linecap="round" stroke-linejoin="round"></path>
                    <circle id="Oval-51" fill="#505050" cx="63.5" cy="33.5" r="2.5"></circle>
                    <circle id="Oval-51" fill="#505050" cx="72.5" cy="33.5" r="2.5"></circle>
                    <circle id="Oval-51" fill="#505050" cx="81.5" cy="33.5" r="2.5"></circle>
                </g>
            </g>
        </g>
    </g>
</svg>