<?xml version="1.0" encoding="UTF-8" standalone="no"?>
<svg width="160px" height="120px" viewBox="0 0 160 120" version="1.1" xmlns="http://www.w3.org/2000/svg" xmlns:xlink="http://www.w3.org/1999/xlink">
    <!-- Generator: Sketch 3.8.3 (29802) - http://www.bohemiancoding.com/sketch -->
    <title>Artboard 3</title>
    <desc>Created with Sketch.</desc>
    <defs></defs>
    <g id="Page-1" stroke="none" stroke-width="1" fill="none" fill-rule="evenodd">
        <g id="Artboard-3">
            <g id="Group" transform="translate(27.000000, 36.000000)">
                <path d="M37.6071877,0 L8.67858177,0 C3.88728142,0 0,3.88728142 0,8.67858177 L0,37.6071877 C0,42.398488 3.88728142,46.2857695 8.67858177,46.2857695 L24.7098509,46.2857695 L24.7098509,28.3560606 L18.683058,28.3560606 L18.683058,21.3649808 L24.7098509,21.3649808 L24.7098509,16.2120729 C24.7098509,10.2455479 28.3861946,6.99107976 33.7199063,6.99107976 C36.2511593,6.99107976 38.4509387,7.17188355 39.0837519,7.26228544 L39.0837519,13.5000161 L35.4074083,13.5301501 C32.4844137,13.5301501 31.9420024,14.8861785 31.9420024,16.9051541 L31.9420024,21.3649808 L38.8426802,21.3649808 L37.9386613,28.3560606 L31.9420024,28.3560606 L31.9420024,46.2857695 L37.6071877,46.2857695 C42.398488,46.2857695 46.2857695,42.398488 46.2857695,37.6071877 L46.2857695,8.67858177 C46.2857695,3.88728142 42.398488,0 37.6071877,0 L37.6071877,0 Z" id="" stroke="#505050" stroke-width="4" stroke-linecap="round" stroke-linejoin="round"></path>
                <path d="M103.85718,20.9531285 C103.013429,22.248889 101.928606,23.3638457 100.693113,24.2377307 C100.723247,24.5089363 100.723247,24.780142 100.723247,25.0513477 C100.723247,33.4285898 94.3348469,43.0714585 82.7031366,43.0714585 C79.1171948,43.0714585 75.8024587,42.0167697 73,40.2388658 C73.4821434,40.2991337 73.9944208,40.3292677 74.5066982,40.3292677 C77.4899607,40.3292677 80.2020175,39.3047129 82.371663,37.6172109 C79.5993382,37.556943 77.279023,35.7187711 76.4654059,33.2176521 C76.8571475,33.27792 77.248889,33.3381879 77.6406305,33.3381879 C78.2131759,33.3381879 78.6350514,33.247786 79.1774627,33.0971162 C76.2846021,32.5245709 73.9642869,29.9631839 73.9642869,26.8895195 L73.9642869,26.8292516 C74.9285737,27.2812611 75.9229946,27.5826007 76.9776833,27.6127347 C75.2600473,26.467644 74.2354925,24.5390703 74.2354925,22.3392909 C74.2354925,21.1942002 74.5669662,20.0792436 75.1093775,19.1450907 C78.2433098,23.0022381 82.9140743,25.5033572 88.1875181,25.7745628 C88.0669822,25.3225534 88.0368483,24.810276 88.0368483,24.3281325 C88.0368483,20.8325927 90.8694409,18 94.3649808,18 C96.1730187,18 97.8303867,18.7533491 98.9754774,19.9888417 C100.421908,19.717636 101.777936,19.1752246 103.013429,18.4520095 C102.531285,19.9285737 101.536864,21.1942002 100.21097,21.9776833 C101.50673,21.7968795 102.712089,21.4654059 103.85718,20.9531285 L103.85718,20.9531285 Z" id="Path" fill="#CCFF00"></path>
                <path d="M98.5714746,15.5245709 C97.7277235,16.8203314 96.6429008,17.935288 95.4074083,18.809173 C95.4375422,19.0803787 95.4375422,19.3515844 95.4375422,19.6227901 C95.4375422,28.0000322 89.0491418,37.6429008 77.4174315,37.6429008 C73.8314897,37.6429008 70.5167536,36.5882121 67.7142949,34.8103082 C68.1964383,34.8705761 68.7087157,34.9007101 69.2209931,34.9007101 C72.2042556,34.9007101 74.9163124,33.8761553 77.0859579,32.1886533 C74.3136331,32.1283853 71.9933179,30.2902135 71.1797008,27.7890944 C71.5714424,27.8493624 71.9631839,27.9096303 72.3549254,27.9096303 C72.9274708,27.9096303 73.3493463,27.8192284 73.8917576,27.6685586 C70.998897,27.0960133 68.6785818,24.5346263 68.6785818,21.4609619 L68.6785818,21.400694 C69.6428686,21.8527034 70.6372895,22.1540431 71.6919782,22.184177 C69.9743422,21.0390864 68.9497875,19.1105127 68.9497875,16.9107333 C68.9497875,15.7656426 69.2812611,14.6506859 69.8236724,13.716533 C72.9576047,17.5736805 77.6283692,20.0747995 82.901813,20.3460052 C82.7812772,19.8939957 82.7511432,19.3817183 82.7511432,18.8995749 C82.7511432,15.404035 85.5837359,12.5714424 89.0792757,12.5714424 C90.8873136,12.5714424 92.5446817,13.3247915 93.6897723,14.560284 C95.1362026,14.2890783 96.492231,13.746667 97.7277235,13.0234518 C97.2455801,14.5000161 96.2511593,15.7656426 94.9252648,16.5491257 C96.2210253,16.3683219 97.4263839,16.0368483 98.5714746,15.5245709 L98.5714746,15.5245709 Z M106.285769,9.67858177 C106.285769,4.88728142 102.398488,1 97.6071877,1 L68.6785818,1 C63.8872814,1 60,4.88728142 60,9.67858177 L60,38.6071877 C60,43.398488 63.8872814,47.2857695 68.6785818,47.2857695 L97.6071877,47.2857695 C102.398488,47.2857695 106.285769,43.398488 106.285769,38.6071877 L106.285769,9.67858177 Z" id="" stroke="#505050" stroke-width="4" stroke-linecap="round" stroke-linejoin="round"></path>
            </g>
        </g>
    </g>
</svg>