<?xml version="1.0" encoding="UTF-8" standalone="no"?>
<svg width="160px" height="120px" viewBox="0 0 160 120" version="1.1" xmlns="http://www.w3.org/2000/svg" xmlns:xlink="http://www.w3.org/1999/xlink">
    <!-- Generator: Sketch 39.1 (31720) - http://www.bohemiancoding.com/sketch -->
    <title>Artboard 3</title>
    <desc>Created with Sketch.</desc>
    <defs></defs>
    <g id="Page-1" stroke="none" stroke-width="1" fill="none" fill-rule="evenodd">
        <g id="Artboard-3">
            <g id="Gift-packaging" transform="translate(36.000000, 16.000000)">
                <g id="color_59_" transform="translate(8.000000, 6.000000)" fill="#F9524E">
                    <path d="M76,0 L2,0 C0.896,0 0,0.894 0,2 L0,78 C0,79.106 0.896,80 2,80 L76,80 C77.106,80 78,79.106 78,78 L78,2 C78,0.894 77.106,0 76,0 L76,0 Z" id="Shape"></path>
                </g>
                <g id="outline_57_" fill="#505050">
                    <path d="M86,0 L2,0 C0.896,0 0,0.894 0,2 L0,86 C0,87.106 0.896,88 2,88 L86,88 C87.106,88 88,87.106 88,86 L88,2 C88,0.894 87.106,0 86,0 L86,0 Z M4,4 L40,4 C41.104,4 42,4.894 42,6 L42,28 C41.394,26.83 40.62,25.994 39.614,24.996 C35.584,20.988 29.048,20.988 25.018,24.996 C20.986,29.004 20.986,35.502 25.018,39.51 C26.058,40.544 26.89,41.362 28,42 L6,42 C4.896,42 4,41.106 4,40 L4,4 L4,4 Z M42,82 C42,83.106 41.104,84 40,84 L4,84 L4,48 C4,46.894 4.896,46 6,46 L35.626,46 C35.2,46.308 34.772,46.614 34.386,46.996 C30.858,50.504 30.074,63.04 30,66 C30,67.106 30.896,68 32,68 C33.104,68 34,67.106 34,66 C34,66 34.05,55.192 37.192,50.01 C38.166,48.406 40.282,45.926 42,46 L42,82 L42,82 Z M42,42 C41.744,42.254 33.238,41.908 28.048,36.718 C25.574,34.246 25.518,30.304 27.936,27.898 C30.354,25.494 34.334,25.536 36.808,28.01 C41.998,33.202 42.058,41.942 42,42 L42,42 Z M84,84 L48,84 C46.894,84 46,83.106 46,82 L46,46 C47.718,45.926 49.834,48.406 50.808,50.01 C53.95,55.192 54,66 54,66 C54,67.106 54.894,68 56,68 C57.106,68 58,67.106 58,66 C57.926,63.04 57.142,50.504 53.614,46.996 C53.23,46.614 52.8,46.308 52.376,46 L82,46 C83.106,46 84,46.894 84,48 L84,84 L84,84 Z M51.172,28.028 C53.644,25.556 57.606,25.504 60.018,27.916 C62.43,30.328 62.38,34.288 59.906,36.762 C54.708,41.958 46.254,42.254 46,42 C45.942,41.942 46.044,33.154 51.172,28.028 L51.172,28.028 Z M84,40 C84,41.106 83.106,42 82,42 L60,42 C60.954,41.37 61.922,40.566 62.93,39.56 C66.95,35.54 66.95,29.022 62.93,25.004 C58.91,20.986 52.392,20.984 48.374,25.004 C47.376,26.002 46.742,26.762 46,28 L46,6 C46,4.894 46.894,4 48,4 L84,4 L84,40 L84,40 Z" id="Shape"></path>
                </g>
            </g>
        </g>
        <text id="radio-" font-family="HelveticaNeue, Helvetica Neue" font-size="21" font-weight="normal" line-spacing="166" fill="#000000">
            <tspan x="-115" y="123">radio </tspan>
            <tspan x="-115" y="289">tv </tspan>
            <tspan x="-115" y="455">diario </tspan>
            <tspan x="-115" y="621">telefono </tspan>
            <tspan x="-115" y="787">plaza o parque no autorizado </tspan>
            <tspan x="-115" y="953">daño espacio publico </tspan>
            <tspan x="-115" y="1119">correo </tspan>
            <tspan x="-115" y="1285">avion </tspan>
            <tspan x="-115" y="1451">brigadista con bandera </tspan>
            <tspan x="-115" y="1617">afiche en espacio publico </tspan>
            <tspan x="-115" y="1783">redes sociales </tspan>
            <tspan x="-115" y="1949">gasto electoral </tspan>
            <tspan x="-115" y="2115">recibir fondos </tspan>
            <tspan x="-115" y="2281" font-family="ArialMT, Arial">Propaganda en infraestructura de servicios públicos</tspan>
            <tspan x="-115" y="2447" font-family="ArialMT, Arial">Rayados, murales y elementos que se adhieran a paredes</tspan>
            <tspan x="-115" y="2613" font-family="ArialMT, Arial">Carteles de un tamaño superior a 2m² en espacio público y 6m² en espacio privado</tspan>
            <tspan x="-115" y="2779" font-family="ArialMT, Arial">cine</tspan>
            <tspan x="-115" y="2945" font-family="ArialMT, Arial">Propaganda en espacio privado sin autorización</tspan>
            <tspan x="-115" y="3111" font-family="ArialMT, Arial">financiamiento de empresas</tspan>
            <tspan x="-115" y="3277" font-family="ArialMT, Arial">Superar límite al gasto electoral</tspan>
        </text>
    </g>
</svg>