<?xml version="1.0" encoding="UTF-8" standalone="no"?>
<svg width="160px" height="120px" viewBox="0 0 160 120" version="1.1" xmlns="http://www.w3.org/2000/svg" xmlns:xlink="http://www.w3.org/1999/xlink">
    <!-- Generator: Sketch 39.1 (31720) - http://www.bohemiancoding.com/sketch -->
    <title>Artboard 3</title>
    <desc>Created with Sketch.</desc>
    <defs>
        <path d="M15.4042969,33.5957031 L34,33.5957031 C44.2701232,33.5957031 52.5957031,41.9168216 52.5957031,52.1994762 L52.5957031,82.99193 C52.5957031,93.2665102 44.2755248,101.595703 34.0042859,101.595703 L15.5214844,101.595703" id="path-1"></path>
        <mask id="mask-2" maskContentUnits="userSpaceOnUse" maskUnits="objectBoundingBox" x="0" y="0" width="37.1914062" height="68" fill="white">
            <use xlink:href="#path-1"></use>
        </mask>
    </defs>
    <g id="Page-1" stroke="none" stroke-width="1" fill="none" fill-rule="evenodd">
        <g id="Artboard-3">
            <g id="Group-40-Copy" transform="translate(6.000000, 12.000000)">
                <g id="Group-38" transform="translate(39.000000, 0.000000)">
                    <g id="Group-30-Copy" transform="translate(12.000000, 0.000000)" fill="#505050">
                        <g id="outline_31_" transform="translate(11.000000, 14.000000)">
                            <path d="M10,16 C11.106,16 12,15.106 12,14 L12,6 C12,4.894 11.106,4 10,4 C8.894,4 8,4.894 8,6 L8,14 C8,15.106 8.894,16 10,16 L10,16 Z M18,0 C16.894,0 16,0.894 16,2 C16,3.106 16.894,4 18,4 C19.106,4 20,3.106 20,2 C20,0.894 19.106,0 18,0 L18,0 Z M2,4 C3.106,4 4,3.106 4,2 C4,0.894 3.106,0 2,0 C0.894,0 0,0.894 0,2 C0,3.106 0.894,4 2,4 L2,4 Z M18,16 C17.43,16 16.922,16.246 16.556,16.628 C15.098,18.074 12.192,20 10,20 C7.792,20 4.854,17.98 3.406,16.532 C3.406,16.532 3.05,16 2,16 C0.894,16 0,16.894 0,18 C0,18.632 0.312,19.174 0.772,19.54 C2.976,21.666 6.778,24 10,24 C13.312,24 17.25,21.594 19.422,19.422 L19.414,19.414 C19.778,19.052 20,18.552 20,18 C20,16.894 19.106,16 18,16 L18,16 Z" id="Shape"></path>
                        </g>
                        <path d="M11.0054696,4 L30.9945304,4 C34.8652529,4 38,7.13228692 38,11.0011143 L38,25.9987537 C38,35.3891466 30.3902842,43 21,43 C11.6115906,43 4,35.3876026 4,25.9987537 L4,11.0011143 C4,7.13426823 7.1354971,4 11.0054696,4 Z M0,25.9987537 C0,37.5966467 9.40235664,47 21,47 C32.599557,47 42,37.5981518 42,25.9987537 L42,11.0011143 C42,4.92244461 37.0736892,0 30.9945304,0 L11.0054696,0 C4.92670903,0 0,4.92477815 0,11.0011143 L0,25.9987537 Z" id="Rectangle-78"></path>
                    </g>
                    <path d="M20.4042969,41.5957031 L39,41.5957031 C49.2701232,41.5957031 57.5957031,49.9168216 57.5957031,60.1994762 L57.5957031,90.99193 C57.5957031,101.26651 49.2755248,109.595703 39.0042859,109.595703 L20.5214844,109.595703 L20.4042969,41.5957031 Z" id="Rectangle-Copy" fill="#CCFF00" transform="translate(39.000000, 75.595703) rotate(-90.000000) translate(-39.000000, -75.595703) "></path>
                    <use id="Rectangle" stroke="#505050" mask="url(#mask-2)" stroke-width="8" transform="translate(34.000000, 67.595703) rotate(-90.000000) translate(-34.000000, -67.595703) " xlink:href="#path-1"></use>
                </g>
                <g id="Group-39" transform="translate(0.000000, 7.000000)">
                    <g id="outline_31_" transform="translate(20.125000, 12.500000)" fill="#505050">
                        <path d="M8.75,14 C9.71775,14 10.5,13.21775 10.5,12.25 L10.5,5.25 C10.5,4.28225 9.71775,3.5 8.75,3.5 C7.78225,3.5 7,4.28225 7,5.25 L7,12.25 C7,13.21775 7.78225,14 8.75,14 L8.75,14 Z M15.75,0 C14.78225,0 14,0.78225 14,1.75 C14,2.71775 14.78225,3.5 15.75,3.5 C16.71775,3.5 17.5,2.71775 17.5,1.75 C17.5,0.78225 16.71775,0 15.75,0 L15.75,0 Z M1.75,3.5 C2.71775,3.5 3.5,2.71775 3.5,1.75 C3.5,0.78225 2.71775,0 1.75,0 C0.78225,0 0,0.78225 0,1.75 C0,2.71775 0.78225,3.5 1.75,3.5 L1.75,3.5 Z M15.75,14 C15.25125,14 14.80675,14.21525 14.4865,14.5495 C13.21075,15.81475 10.668,17.5 8.75,17.5 C6.818,17.5 4.24725,15.7325 2.98025,14.4655 C2.98025,14.4655 2.66875,14 1.75,14 C0.78225,14 0,14.78225 0,15.75 C0,16.303 0.273,16.77725 0.6755,17.0975 C2.604,18.95775 5.93075,21 8.75,21 C11.648,21 15.09375,18.89475 16.99425,16.99425 L16.98725,16.98725 C17.30575,16.6705 17.5,16.233 17.5,15.75 C17.5,14.78225 16.71775,14 15.75,14 L15.75,14 Z" id="Shape"></path>
                    </g>
                    <path d="M21.2479288,4 L36.5020712,4 C40.36794,4 43.5,7.13212308 43.5,11.0001671 L43.5,22.9989095 C43.5,31.0774405 36.9534191,37.625 28.875,37.625 C20.7941274,37.625 14.25,31.0832344 14.25,22.9989095 L14.25,11.0001671 C14.25,7.13350324 17.3824283,4 21.2479288,4 Z M10.25,22.9989095 C10.25,33.2926966 18.5853116,41.625 28.875,41.625 C39.162692,41.625 47.5,33.2864457 47.5,22.9989095 L47.5,11.0001671 C47.5,4.92300212 42.5770971,0 36.5020712,0 L21.2479288,0 C15.172982,0 10.25,4.92467142 10.25,11.0001671 L10.25,22.9989095 Z" id="Rectangle-78" fill="#505050"></path>
                    <path d="M11.375,36.125 L23.625,36.125 C30.3904882,36.125 35.875,41.6002378 35.875,48.3841644 L35.875,83.2524784 L35.875,83.391503" id="Rectangle-79" stroke="#505050" stroke-width="4" stroke-linecap="round" stroke-linejoin="round" transform="translate(23.625000, 59.750000) rotate(-90.000000) translate(-23.625000, -59.750000) "></path>
                </g>
                <g id="Group-39-Copy" transform="translate(123.250000, 43.000000) scale(-1, 1) translate(-123.250000, -43.000000) translate(99.250000, 7.000000)">
                    <g id="outline_31_" transform="translate(20.125000, 12.500000)" fill="#505050">
                        <path d="M8.75,14 C9.71775,14 10.5,13.21775 10.5,12.25 L10.5,5.25 C10.5,4.28225 9.71775,3.5 8.75,3.5 C7.78225,3.5 7,4.28225 7,5.25 L7,12.25 C7,13.21775 7.78225,14 8.75,14 L8.75,14 Z M15.75,0 C14.78225,0 14,0.78225 14,1.75 C14,2.71775 14.78225,3.5 15.75,3.5 C16.71775,3.5 17.5,2.71775 17.5,1.75 C17.5,0.78225 16.71775,0 15.75,0 L15.75,0 Z M1.75,3.5 C2.71775,3.5 3.5,2.71775 3.5,1.75 C3.5,0.78225 2.71775,0 1.75,0 C0.78225,0 0,0.78225 0,1.75 C0,2.71775 0.78225,3.5 1.75,3.5 L1.75,3.5 Z M15.75,14 C15.25125,14 14.80675,14.21525 14.4865,14.5495 C13.21075,15.81475 10.668,17.5 8.75,17.5 C6.818,17.5 4.24725,15.7325 2.98025,14.4655 C2.98025,14.4655 2.66875,14 1.75,14 C0.78225,14 0,14.78225 0,15.75 C0,16.303 0.273,16.77725 0.6755,17.0975 C2.604,18.95775 5.93075,21 8.75,21 C11.648,21 15.09375,18.89475 16.99425,16.99425 L16.98725,16.98725 C17.30575,16.6705 17.5,16.233 17.5,15.75 C17.5,14.78225 16.71775,14 15.75,14 L15.75,14 Z" id="Shape"></path>
                    </g>
                    <path d="M21.2479288,4 L36.5020712,4 C40.36794,4 43.5,7.13212308 43.5,11.0001671 L43.5,22.9989095 C43.5,31.0774405 36.9534191,37.625 28.875,37.625 C20.7941274,37.625 14.25,31.0832344 14.25,22.9989095 L14.25,11.0001671 C14.25,7.13350324 17.3824283,4 21.2479288,4 Z M10.25,22.9989095 C10.25,33.2926966 18.5853116,41.625 28.875,41.625 C39.162692,41.625 47.5,33.2864457 47.5,22.9989095 L47.5,11.0001671 C47.5,4.92300212 42.5770971,0 36.5020712,0 L21.2479288,0 C15.172982,0 10.25,4.92467142 10.25,11.0001671 L10.25,22.9989095 Z" id="Rectangle-78" fill="#505050"></path>
                    <path d="M11.375,36.125 L23.625,36.125 C30.3904882,36.125 35.875,41.6002378 35.875,48.3841644 L35.875,83.2524784 L35.875,83.391503" id="Rectangle-79" stroke="#505050" stroke-width="4" stroke-linecap="round" stroke-linejoin="round" transform="translate(23.625000, 59.750000) rotate(-90.000000) translate(-23.625000, -59.750000) "></path>
                </g>
            </g>
        </g>
        <text id="radio-" font-family="HelveticaNeue, Helvetica Neue" font-size="21" font-weight="normal" line-spacing="166" fill="#000000">
            <tspan x="-115" y="123">radio </tspan>
            <tspan x="-115" y="289">tv </tspan>
            <tspan x="-115" y="455">diario </tspan>
            <tspan x="-115" y="621">telefono </tspan>
            <tspan x="-115" y="787">plaza o parque no autorizado </tspan>
            <tspan x="-115" y="953">daño espacio publico </tspan>
            <tspan x="-115" y="1119">correo </tspan>
            <tspan x="-115" y="1285">avion </tspan>
            <tspan x="-115" y="1451">brigadista con bandera </tspan>
            <tspan x="-115" y="1617">afiche en espacio publico </tspan>
            <tspan x="-115" y="1783">redes sociales </tspan>
            <tspan x="-115" y="1949">gasto electoral </tspan>
            <tspan x="-115" y="2115">recibir fondos </tspan>
            <tspan x="-115" y="2281" font-family="ArialMT, Arial">Propaganda en infraestructura de servicios públicos</tspan>
            <tspan x="-115" y="2447" font-family="ArialMT, Arial">Rayados, murales y elementos que se adhieran a paredes</tspan>
            <tspan x="-115" y="2613" font-family="ArialMT, Arial">Carteles de un tamaño superior a 2m² en espacio público y 6m² en espacio privado</tspan>
            <tspan x="-115" y="2779" font-family="ArialMT, Arial">cine</tspan>
            <tspan x="-115" y="2945" font-family="ArialMT, Arial">Propaganda en espacio privado sin autorización</tspan>
            <tspan x="-115" y="3111" font-family="ArialMT, Arial">financiamiento de empresas</tspan>
            <tspan x="-115" y="3277" font-family="ArialMT, Arial">Superar límite al gasto electoral</tspan>
        </text>
    </g>
</svg>