<?xml version="1.0" encoding="UTF-8" standalone="no"?>
<svg width="160px" height="120px" viewBox="0 0 160 120" version="1.1" xmlns="http://www.w3.org/2000/svg" xmlns:xlink="http://www.w3.org/1999/xlink">
    <!-- Generator: Sketch 3.8.3 (29802) - http://www.bohemiancoding.com/sketch -->
    <title>Artboard 3</title>
    <desc>Created with Sketch.</desc>
    <defs></defs>
    <g id="Page-1" stroke="none" stroke-width="1" fill="none" fill-rule="evenodd">
        <g id="Artboard-3">
            <g id="Group-4-Copy" transform="translate(33.000000, 13.000000)">
                <g id="monitor" transform="translate(0.000000, 30.000000)">
                    <rect id="Rectangle-49" fill="#F9524E" x="12" y="14" width="81" height="47" rx="4"></rect>
                    <path d="M5.08928571,0 C2.27321429,0 0,2.27217391 0,5.08695652 L0,59.3478261 C0,62.1626087 2.27321429,64.4347826 5.08928571,64.4347826 L89.9107143,64.4347826 C92.7267857,64.4347826 95,62.1626087 95,59.3478261 L95,5.08695652 C95,2.27217391 92.7267857,0 89.9107143,0 L5.08928571,0 Z M91.6071429,50.8695652 L13.5714286,50.8695652 L13.5714286,54.2608696 L91.6071429,54.2608696 L91.6071429,59.3478261 C91.6071429,60.2973913 90.8607143,61.0434783 89.9107143,61.0434783 L5.08928571,61.0434783 C4.13928571,61.0434783 3.39285714,60.2973913 3.39285714,59.3478261 L3.39285714,5.08695652 C3.39285714,4.1373913 4.13928571,3.39130435 5.08928571,3.39130435 L89.9107143,3.39130435 C90.8607143,3.39130435 91.6071429,4.1373913 91.6071429,5.08695652 L91.6071429,50.8695652 L91.6071429,50.8695652 Z" id="Shape" stroke="#505050" stroke-width="0.5" fill="#505050"></path>
                    <path d="M88.2142857,11.8695652 L88.2142857,45.7826087 L84.8214286,45.7826087 L84.8214286,11.8695652 C84.8214286,10.5130435 83.8714286,10.2078261 83.0910714,10.173913 L11.875,10.173913 C10.5178571,10.173913 10.2125,11.0895652 10.1785714,11.9034783 L10.1785714,54.2608696 L6.78571429,54.2608696 L6.78571429,11.8695652 C6.78571429,9.83478261 8.14285714,6.7826087 11.875,6.7826087 L83.125,6.7826087 C85.1607143,6.7826087 88.2142857,8.13913043 88.2142857,11.8695652 L88.2142857,11.8695652 Z" id="Shape" stroke="#505050" stroke-width="0.5" fill="#505050"></path>
                </g>
                <polyline id="Path-415" stroke="#505050" stroke-width="4" stroke-linecap="round" stroke-linejoin="round" points="29 0 44.9375 30.5078125 63.4589844 12.1386719"></polyline>
            </g>
        </g>
    </g>
</svg>